<?xml version="1.0" encoding="UTF-8"?>
<!DOCTYPE svg PUBLIC "-//W3C//DTD SVG 1.1//EN" "http://www.w3.org/Graphics/SVG/1.1/DTD/svg11.dtd">
<svg xmlns="http://www.w3.org/2000/svg" version="1.1" width="500px" height="540px" style="shape-rendering:geometricPrecision; text-rendering:geometricPrecision; image-rendering:optimizeQuality; fill-rule:evenodd; clip-rule:evenodd" xmlns:xlink="http://www.w3.org/1999/xlink">
<g><path style="opacity:1" fill="#aec1e3" d="M 277.5,105.5 C 276.833,105.5 276.167,105.5 275.5,105.5C 271.167,105.5 266.833,105.5 262.5,105.5C 252.167,105.5 241.833,105.5 231.5,105.5C 230.167,106.167 229.167,107.167 228.5,108.5C 228.167,108.5 227.833,108.5 227.5,108.5C 227.916,106.248 229.249,104.748 231.5,104C 245.833,103.333 260.167,103.333 274.5,104C 275.737,104.232 276.737,104.732 277.5,105.5 Z"/></g>
<g><path style="opacity:1" fill="#3f72b3" d="M 231.5,105.5 C 233.167,106.167 234.833,106.833 236.5,107.5C 235.92,113.301 235.253,118.968 234.5,124.5C 232.983,123.265 231.316,123.265 229.5,124.5C 228.505,119.208 228.172,113.875 228.5,108.5C 229.167,107.167 230.167,106.167 231.5,105.5 Z"/></g>
<g><path style="opacity:0.996" fill="#1f5ca3" d="M 231.5,105.5 C 241.833,105.5 252.167,105.5 262.5,105.5C 255.687,106.491 248.687,106.825 241.5,106.5C 241.5,109.833 241.5,113.167 241.5,116.5C 243.167,116.5 244.833,116.5 246.5,116.5C 246.671,105.854 247.171,105.854 248,116.5C 248.973,114.608 249.64,112.608 250,110.5C 250.497,117.503 251.163,117.837 252,111.5C 252.202,113.256 252.702,114.922 253.5,116.5C 254.318,113.893 254.818,111.226 255,108.5C 255.498,111.482 255.665,114.482 255.5,117.5C 257.638,117.703 259.305,118.703 260.5,120.5C 262.005,117.869 262.671,118.203 262.5,121.5C 256.624,122.934 250.624,123.768 244.5,124C 245.056,124.383 245.389,124.883 245.5,125.5C 244.178,125.67 243.011,125.337 242,124.5C 240.11,118.99 239.277,113.324 239.5,107.5C 238.5,107.5 237.5,107.5 236.5,107.5C 234.833,106.833 233.167,106.167 231.5,105.5 Z"/></g>
<g><path style="opacity:0.996" fill="#3569ac" d="M 262.5,105.5 C 266.833,105.5 271.167,105.5 275.5,105.5C 273.5,106.167 271.5,106.833 269.5,107.5C 268.167,107.5 266.833,107.5 265.5,107.5C 265.334,112.511 265.501,117.511 266,122.5C 266.333,122.833 266.667,123.167 267,123.5C 267.333,122.5 267.667,121.5 268,120.5C 269.049,122.107 270.549,122.773 272.5,122.5C 272.647,117.786 272.314,113.119 271.5,108.5C 273.085,110.831 274.251,113.497 275,116.5C 275.97,113.556 276.804,110.556 277.5,107.5C 278.188,113.052 278.854,118.552 279.5,124C 277.965,124.496 276.465,124.33 275,123.5C 273.97,123.836 273.47,124.503 273.5,125.5C 264.167,125.5 254.833,125.5 245.5,125.5C 245.389,124.883 245.056,124.383 244.5,124C 250.624,123.768 256.624,122.934 262.5,121.5C 262.671,118.203 262.005,117.869 260.5,120.5C 259.305,118.703 257.638,117.703 255.5,117.5C 255.665,114.482 255.498,111.482 255,108.5C 254.818,111.226 254.318,113.893 253.5,116.5C 252.702,114.922 252.202,113.256 252,111.5C 251.163,117.837 250.497,117.503 250,110.5C 249.64,112.608 248.973,114.608 248,116.5C 247.171,105.854 246.671,105.854 246.5,116.5C 244.833,116.5 243.167,116.5 241.5,116.5C 241.5,113.167 241.5,109.833 241.5,106.5C 248.687,106.825 255.687,106.491 262.5,105.5 Z"/></g>
<g><path style="opacity:1" fill="#134c93" d="M 269.5,107.5 C 270.492,107.328 271.158,107.662 271.5,108.5C 272.314,113.119 272.647,117.786 272.5,122.5C 270.549,122.773 269.049,122.107 268,120.5C 267.667,121.5 267.333,122.5 267,123.5C 266.667,123.167 266.333,122.833 266,122.5C 265.501,117.511 265.334,112.511 265.5,107.5C 266.833,107.5 268.167,107.5 269.5,107.5 Z"/></g>
<g><path style="opacity:1" fill="#5f82b5" d="M 227.5,108.5 C 227.833,108.5 228.167,108.5 228.5,108.5C 228.172,113.875 228.505,119.208 229.5,124.5C 231.316,123.265 232.983,123.265 234.5,124.5C 232.598,127.337 231.931,130.671 232.5,134.5C 231.5,134.5 230.5,134.5 229.5,134.5C 228.5,134.5 227.5,134.5 226.5,134.5C 226.327,125.805 226.66,117.138 227.5,108.5 Z"/></g>
<g><path style="opacity:0.948" fill="#5a7fb2" d="M 275.5,105.5 C 276.167,105.5 276.833,105.5 277.5,105.5C 279.13,107.026 279.963,109.026 280,111.5C 280.226,115.887 280.726,120.221 281.5,124.5C 281.137,125.183 280.804,125.85 280.5,126.5C 280.5,129.167 280.5,131.833 280.5,134.5C 278.167,134.5 275.833,134.5 273.5,134.5C 273.5,131.5 273.5,128.5 273.5,125.5C 273.47,124.503 273.97,123.836 275,123.5C 276.465,124.33 277.965,124.496 279.5,124C 278.854,118.552 278.188,113.052 277.5,107.5C 276.804,110.556 275.97,113.556 275,116.5C 274.251,113.497 273.085,110.831 271.5,108.5C 271.158,107.662 270.492,107.328 269.5,107.5C 271.5,106.833 273.5,106.167 275.5,105.5 Z"/></g>
<g><path style="opacity:0.925" fill="#115096" d="M 236.5,107.5 C 237.5,107.5 238.5,107.5 239.5,107.5C 239.277,113.324 240.11,118.99 242,124.5C 243.011,125.337 244.178,125.67 245.5,125.5C 254.833,125.5 264.167,125.5 273.5,125.5C 273.5,128.5 273.5,131.5 273.5,134.5C 263.347,135.494 253.014,135.828 242.5,135.5C 237.968,135.818 233.634,135.485 229.5,134.5C 230.5,134.5 231.5,134.5 232.5,134.5C 231.931,130.671 232.598,127.337 234.5,124.5C 235.253,118.968 235.92,113.301 236.5,107.5 Z"/></g>
<g><path style="opacity:0.099" fill="#020202" d="M 226.5,137.5 C 228.099,137.232 229.432,137.566 230.5,138.5C 229.167,138.833 229.167,139.167 230.5,139.5C 230.5,139.833 230.5,140.167 230.5,140.5C 228.281,141.88 226.281,141.546 224.5,139.5C 225.243,138.818 225.909,138.151 226.5,137.5 Z"/></g>
<g><path style="opacity:0.085" fill="#0a0a0a" d="M 280.5,137.5 C 284.553,139.001 284.386,140.335 280,141.5C 277.922,140.057 277.089,140.724 277.5,143.5C 276.539,141.735 276.205,139.735 276.5,137.5C 277.833,137.5 279.167,137.5 280.5,137.5 Z"/></g>
<g><path style="opacity:0.634" fill="#dedede" d="M 236.5,138.5 C 247.321,139.495 258.321,139.828 269.5,139.5C 269.253,142.505 270.253,145.005 272.5,147C 270.19,147.497 267.857,147.663 265.5,147.5C 258.515,148.089 251.515,148.422 244.5,148.5C 241.145,147.382 237.812,147.382 234.5,148.5C 232.179,145.134 231.346,141.467 232,137.5C 232.333,138.167 232.667,138.833 233,139.5C 234.011,138.663 235.178,138.33 236.5,138.5 Z"/></g>
<g><path style="opacity:0.514" fill="#8e8d8d" d="M 280.5,126.5 C 281.02,129.908 282.02,133.241 283.5,136.5C 282.675,137.386 281.675,137.719 280.5,137.5C 279.167,137.5 277.833,137.5 276.5,137.5C 276.205,139.735 276.539,141.735 277.5,143.5C 277.34,145.199 277.506,146.866 278,148.5C 279.376,149.705 280.542,151.038 281.5,152.5C 279.007,152.024 277.007,150.69 275.5,148.5C 274.914,148.709 274.414,149.043 274,149.5C 273.505,151.473 273.338,153.473 273.5,155.5C 272.596,154.791 272.263,153.791 272.5,152.5C 268.514,151.671 264.514,150.837 260.5,150C 262.315,149.243 263.981,148.41 265.5,147.5C 267.857,147.663 270.19,147.497 272.5,147C 270.253,145.005 269.253,142.505 269.5,139.5C 258.321,139.828 247.321,139.495 236.5,138.5C 239.187,138.664 241.854,138.497 244.5,138C 242.833,137.667 241.167,137.333 239.5,137C 240.737,136.768 241.737,136.268 242.5,135.5C 253.014,135.828 263.347,135.494 273.5,134.5C 275.833,134.5 278.167,134.5 280.5,134.5C 280.5,131.833 280.5,129.167 280.5,126.5 Z"/></g>
<g><path style="opacity:0.571" fill="#7d7a7a" d="M 226.5,134.5 C 227.5,134.5 228.5,134.5 229.5,134.5C 233.634,135.485 237.968,135.818 242.5,135.5C 241.737,136.268 240.737,136.768 239.5,137C 241.167,137.333 242.833,137.667 244.5,138C 241.854,138.497 239.187,138.664 236.5,138.5C 235.178,138.33 234.011,138.663 233,139.5C 232.667,138.833 232.333,138.167 232,137.5C 231.346,141.467 232.179,145.134 234.5,148.5C 237.812,147.382 241.145,147.382 244.5,148.5C 245.952,149.302 247.618,149.802 249.5,150C 248.579,151.756 247.412,151.923 246,150.5C 238.305,153.028 231.472,157.028 225.5,162.5C 224.711,162.783 224.044,163.283 223.5,164C 241.497,164.5 259.497,164.667 277.5,164.5C 278.873,164.657 280.207,164.49 281.5,164C 278.388,161.475 275.721,158.642 273.5,155.5C 273.338,153.473 273.505,151.473 274,149.5C 274.414,149.043 274.914,148.709 275.5,148.5C 277.007,150.69 279.007,152.024 281.5,152.5C 282.167,152.5 282.5,152.833 282.5,153.5C 285.101,157.771 288.434,161.437 292.5,164.5C 294.822,165.802 296.155,167.802 296.5,170.5C 296.167,170.5 295.833,170.5 295.5,170.5C 294.883,168.771 293.883,167.271 292.5,166C 285.508,165.5 278.508,165.334 271.5,165.5C 252.497,165.333 233.497,165.5 214.5,166C 212.506,168.158 211.172,170.658 210.5,173.5C 209.833,173.833 209.167,174.167 208.5,174.5C 209.657,170.024 211.99,166.358 215.5,163.5C 220.167,159.5 224.5,155.167 228.5,150.5C 230.299,147.495 230.966,144.162 230.5,140.5C 230.5,140.167 230.5,139.833 230.5,139.5C 230.5,139.167 230.5,138.833 230.5,138.5C 229.432,137.566 228.099,137.232 226.5,137.5C 223.833,136.5 223.833,135.5 226.5,134.5 Z"/></g>
<g><path style="opacity:0.55" fill="#acacac" d="M 265.5,147.5 C 263.981,148.41 262.315,149.243 260.5,150C 264.514,150.837 268.514,151.671 272.5,152.5C 272.263,153.791 272.596,154.791 273.5,155.5C 275.721,158.642 278.388,161.475 281.5,164C 280.207,164.49 278.873,164.657 277.5,164.5C 272.349,163.673 267.016,163.173 261.5,163C 260.636,160.929 259.303,159.262 257.5,158C 259.935,156.997 259.602,156.497 256.5,156.5C 251.097,156.049 246.764,158.216 243.5,163C 238.668,163.916 234.002,163.416 229.5,161.5C 228.151,161.846 226.817,162.179 225.5,162.5C 231.472,157.028 238.305,153.028 246,150.5C 247.412,151.923 248.579,151.756 249.5,150C 247.618,149.802 245.952,149.302 244.5,148.5C 251.515,148.422 258.515,148.089 265.5,147.5 Z"/></g>
<g><path style="opacity:0.788" fill="#c2c2c2" d="M 228.5,150.5 C 224.5,155.167 220.167,159.5 215.5,163.5C 218.833,158.167 223.167,153.833 228.5,150.5 Z"/></g>
<g><path style="opacity:0.557" fill="#c2c4c4" d="M 277.5,164.5 C 259.497,164.667 241.497,164.5 223.5,164C 224.044,163.283 224.711,162.783 225.5,162.5C 226.817,162.179 228.151,161.846 229.5,161.5C 234.002,163.416 238.668,163.916 243.5,163C 246.764,158.216 251.097,156.049 256.5,156.5C 259.602,156.497 259.935,156.997 257.5,158C 259.303,159.262 260.636,160.929 261.5,163C 267.016,163.173 272.349,163.673 277.5,164.5 Z"/></g>
<g><path style="opacity:0.78" fill="#dadbda" d="M 282.5,153.5 C 286.537,156.537 289.871,160.203 292.5,164.5C 288.434,161.437 285.101,157.771 282.5,153.5 Z"/></g>
<g><path style="opacity:0.973" fill="#2c1513" d="M 271.5,165.5 C 271.5,165.833 271.5,166.167 271.5,166.5C 254.325,166.17 237.325,166.503 220.5,167.5C 217.567,168.432 215.567,170.432 214.5,173.5C 212.357,175.131 210.69,177.131 209.5,179.5C 209.472,177.418 210.139,175.584 211.5,174C 211.272,173.601 210.938,173.435 210.5,173.5C 211.172,170.658 212.506,168.158 214.5,166C 233.497,165.5 252.497,165.333 271.5,165.5 Z"/></g>
<g><path style="opacity:1" fill="#593e35" d="M 271.5,166.5 C 271.5,166.167 271.5,165.833 271.5,165.5C 278.508,165.334 285.508,165.5 292.5,166C 293.883,167.271 294.883,168.771 295.5,170.5C 295.286,172.144 295.62,173.644 296.5,175C 296,175.167 295.5,175.333 295,175.5C 292.96,173.299 290.793,171.132 288.5,169C 287.517,168.409 286.85,168.743 286.5,170C 288.983,173.779 290.483,177.946 291,182.5C 294.733,188.364 298.567,188.697 302.5,183.5C 304.136,187.21 304.802,191.21 304.5,195.5C 303.833,195.5 303.167,195.5 302.5,195.5C 302.808,193.076 302.474,190.743 301.5,188.5C 298.834,189.738 296.168,189.738 293.5,188.5C 290.283,184.047 286.616,180.047 282.5,176.5C 281.035,175.263 279.368,174.263 277.5,173.5C 277.5,172.5 277.5,171.5 277.5,170.5C 276.267,168.204 274.267,166.87 271.5,166.5 Z"/></g>
<g><path style="opacity:0.97" fill="#681a09" d="M 220.5,167.5 C 237.325,166.503 254.325,166.17 271.5,166.5C 274.267,166.87 276.267,168.204 277.5,170.5C 275.148,171.566 272.814,172.733 270.5,174C 267.633,174.801 264.966,174.634 262.5,173.5C 263.568,172.566 264.901,172.232 266.5,172.5C 266.329,169.203 266.995,168.869 268.5,171.5C 269.711,170.726 269.711,169.893 268.5,169C 269.167,168.667 269.833,168.333 270.5,168C 268.167,167.333 265.833,167.333 263.5,168C 264.96,168.811 265.293,169.645 264.5,170.5C 263.328,170.081 262.328,169.415 261.5,168.5C 254.189,167.335 246.856,167.169 239.5,168C 237.779,169.527 235.779,170.527 233.5,171C 235.269,172.019 236.936,172.186 238.5,171.5C 239.941,172.304 241.441,172.971 243,173.5C 246.712,172.231 250.378,172.231 254,173.5C 254.333,172.5 254.667,171.5 255,170.5C 256,171.833 257,171.833 258,170.5C 258.342,172.619 259.175,172.953 260.5,171.5C 260.5,172.833 260.5,174.167 260.5,175.5C 252.642,173.756 244.976,174.256 237.5,177C 236.177,177.816 235.511,178.983 235.5,180.5C 233.102,180.259 231.102,180.926 229.5,182.5C 225.703,181.738 224.703,179.738 226.5,176.5C 228.5,176.5 230.5,176.5 232.5,176.5C 232.649,175.448 232.483,174.448 232,173.5C 229.315,173.827 226.482,173.827 223.5,173.5C 225.002,171.825 226.335,169.992 227.5,168C 225.19,167.503 222.857,167.337 220.5,167.5 Z"/></g>
<g><path style="opacity:0.987" fill="#7c1a04" d="M 262.5,173.5 C 261.833,172.833 261.167,172.167 260.5,171.5C 259.175,172.953 258.342,172.619 258,170.5C 257,171.833 256,171.833 255,170.5C 254.667,171.5 254.333,172.5 254,173.5C 250.378,172.231 246.712,172.231 243,173.5C 241.441,172.971 239.941,172.304 238.5,171.5C 236.936,172.186 235.269,172.019 233.5,171C 235.779,170.527 237.779,169.527 239.5,168C 246.856,167.169 254.189,167.335 261.5,168.5C 262.328,169.415 263.328,170.081 264.5,170.5C 265.293,169.645 264.96,168.811 263.5,168C 265.833,167.333 268.167,167.333 270.5,168C 269.833,168.333 269.167,168.667 268.5,169C 269.711,169.893 269.711,170.726 268.5,171.5C 266.995,168.869 266.329,169.203 266.5,172.5C 264.901,172.232 263.568,172.566 262.5,173.5 Z"/></g>
<g><path style="opacity:1" fill="#745e57" d="M 295.5,170.5 C 295.833,170.5 296.167,170.5 296.5,170.5C 297.895,174.515 299.395,178.515 301,182.5C 301.464,181.906 301.631,181.239 301.5,180.5C 302.404,181.209 302.737,182.209 302.5,183.5C 298.567,188.697 294.733,188.364 291,182.5C 290.483,177.946 288.983,173.779 286.5,170C 286.85,168.743 287.517,168.409 288.5,169C 290.793,171.132 292.96,173.299 295,175.5C 295.5,175.333 296,175.167 296.5,175C 295.62,173.644 295.286,172.144 295.5,170.5 Z"/></g>
<g><path style="opacity:1" fill="#784d48" d="M 220.5,167.5 C 222.857,167.337 225.19,167.503 227.5,168C 226.335,169.992 225.002,171.825 223.5,173.5C 221.81,175.519 220.144,177.519 218.5,179.5C 217.198,178.193 215.865,178.193 214.5,179.5C 213.481,177.54 213.481,175.54 214.5,173.5C 215.567,170.432 217.567,168.432 220.5,167.5 Z"/></g>
<g><path style="opacity:0.993" fill="#954a33" d="M 260.5,175.5 C 261.492,175.328 262.158,175.662 262.5,176.5C 262.918,177.222 263.584,177.722 264.5,178C 263.5,178.333 262.5,178.667 261.5,179C 262.28,180.073 262.113,181.24 261,182.5C 259.333,183.833 257.667,183.833 256,182.5C 255,185.167 254,185.167 253,182.5C 251.82,183.684 250.32,184.351 248.5,184.5C 243.77,184.238 239.436,182.904 235.5,180.5C 235.511,178.983 236.177,177.816 237.5,177C 244.976,174.256 252.642,173.756 260.5,175.5 Z"/></g>
<g><path style="opacity:1" fill="#b2a49d" d="M 296.5,170.5 C 299.201,173.235 300.868,176.569 301.5,180.5C 301.631,181.239 301.464,181.906 301,182.5C 299.395,178.515 297.895,174.515 296.5,170.5 Z"/></g>
<g><path style="opacity:1" fill="#7f3c28" d="M 262.5,176.5 C 266.636,176.401 268.969,178.401 269.5,182.5C 268.167,183.5 268.167,184.5 269.5,185.5C 268.643,186.425 267.643,187.092 266.5,187.5C 256.857,186.675 247.191,186.342 237.5,186.5C 235.299,184.582 232.632,183.249 229.5,182.5C 231.102,180.926 233.102,180.259 235.5,180.5C 239.436,182.904 243.77,184.238 248.5,184.5C 250.32,184.351 251.82,183.684 253,182.5C 254,185.167 255,185.167 256,182.5C 257.667,183.833 259.333,183.833 261,182.5C 262.113,181.24 262.28,180.073 261.5,179C 262.5,178.667 263.5,178.333 264.5,178C 263.584,177.722 262.918,177.222 262.5,176.5 Z"/></g>
<g><path style="opacity:1" fill="#3c0f09" d="M 220.5,180.5 C 222.121,180.787 223.121,181.787 223.5,183.5C 224.689,184.429 226.022,184.762 227.5,184.5C 228.053,186.939 228.053,189.273 227.5,191.5C 227.957,192.298 228.624,192.631 229.5,192.5C 229.833,192.5 230.167,192.5 230.5,192.5C 231.263,193.268 232.263,193.768 233.5,194C 231.744,194.202 230.078,194.702 228.5,195.5C 228.863,196.183 229.196,196.85 229.5,197.5C 227.833,197.5 226.167,197.5 224.5,197.5C 224.167,197.5 223.833,197.5 223.5,197.5C 223.561,195.408 224.561,193.908 226.5,193C 225.552,192.517 224.552,192.351 223.5,192.5C 224.042,188.741 222.708,186.074 219.5,184.5C 219.232,182.901 219.566,181.568 220.5,180.5 Z"/></g>
<g><path style="opacity:1" fill="#602017" d="M 223.5,173.5 C 226.482,173.827 229.315,173.827 232,173.5C 232.483,174.448 232.649,175.448 232.5,176.5C 230.5,176.5 228.5,176.5 226.5,176.5C 224.703,179.738 225.703,181.738 229.5,182.5C 232.632,183.249 235.299,184.582 237.5,186.5C 234.562,188.232 231.896,190.232 229.5,192.5C 228.624,192.631 227.957,192.298 227.5,191.5C 228.053,189.273 228.053,186.939 227.5,184.5C 226.022,184.762 224.689,184.429 223.5,183.5C 223.121,181.787 222.121,180.787 220.5,180.5C 220.158,179.662 219.492,179.328 218.5,179.5C 220.144,177.519 221.81,175.519 223.5,173.5 Z"/></g>
<g><path style="opacity:0.937" fill="#363545" d="M 208.5,174.5 C 205.832,181.191 204.165,188.191 203.5,195.5C 202.502,223.328 202.169,251.328 202.5,279.5C 202.167,279.5 201.833,279.5 201.5,279.5C 201.333,250.831 201.5,222.165 202,193.5C 202.503,186.489 204.669,180.156 208.5,174.5 Z"/></g>
<g><path style="opacity:1" fill="#7b2714" d="M 237.5,186.5 C 247.191,186.342 256.857,186.675 266.5,187.5C 267.091,188.151 267.757,188.818 268.5,189.5C 267.757,190.182 267.091,190.849 266.5,191.5C 264.167,191.5 261.833,191.5 259.5,191.5C 259.657,192.873 259.49,194.207 259,195.5C 249.745,193.704 240.245,192.704 230.5,192.5C 230.167,192.5 229.833,192.5 229.5,192.5C 231.896,190.232 234.562,188.232 237.5,186.5 Z"/></g>
<g><path style="opacity:1" fill="#501c0e" d="M 277.5,170.5 C 277.5,171.5 277.5,172.5 277.5,173.5C 274.867,178.897 272.367,184.564 270,190.5C 269.25,191.126 268.416,191.626 267.5,192C 273.989,192.682 273.989,193.516 267.5,194.5C 265.143,194.663 262.81,194.497 260.5,194C 262.974,193.963 264.974,193.13 266.5,191.5C 267.091,190.849 267.757,190.182 268.5,189.5C 267.757,188.818 267.091,188.151 266.5,187.5C 267.643,187.092 268.643,186.425 269.5,185.5C 268.167,184.5 268.167,183.5 269.5,182.5C 268.969,178.401 266.636,176.401 262.5,176.5C 262.158,175.662 261.492,175.328 260.5,175.5C 260.5,174.167 260.5,172.833 260.5,171.5C 261.167,172.167 261.833,172.833 262.5,173.5C 264.966,174.634 267.633,174.801 270.5,174C 272.814,172.733 275.148,171.566 277.5,170.5 Z"/></g>
<g><path style="opacity:1" fill="#3e2725" d="M 214.5,173.5 C 213.481,175.54 213.481,177.54 214.5,179.5C 215.865,178.193 217.198,178.193 218.5,179.5C 219.492,179.328 220.158,179.662 220.5,180.5C 219.566,181.568 219.232,182.901 219.5,184.5C 218.127,184.343 216.793,184.51 215.5,185C 214.174,187.158 212.507,188.992 210.5,190.5C 209.964,189.245 209.297,187.579 208.5,185.5C 208.84,183.488 209.173,181.488 209.5,179.5C 210.69,177.131 212.357,175.131 214.5,173.5 Z"/></g>
<g><path style="opacity:1" fill="#3b1d1d" d="M 277.5,173.5 C 279.368,174.263 281.035,175.263 282.5,176.5C 280.795,177.535 279.128,177.535 277.5,176.5C 276.2,181.05 276.2,185.55 277.5,190C 276.167,190.333 274.833,190.667 273.5,191C 274.5,192 275.5,193 276.5,194C 274.616,194.216 272.949,194.883 271.5,196C 274.365,196.183 277.031,196.683 279.5,197.5C 279.5,198.167 279.167,198.5 278.5,198.5C 260.5,198.5 242.5,198.5 224.5,198.5C 224.5,198.167 224.5,197.833 224.5,197.5C 226.167,197.5 227.833,197.5 229.5,197.5C 241.838,197.667 254.171,197.5 266.5,197C 266.167,196.667 265.833,196.333 265.5,196C 266.416,195.722 267.082,195.222 267.5,194.5C 273.989,193.516 273.989,192.682 267.5,192C 268.416,191.626 269.25,191.126 270,190.5C 272.367,184.564 274.867,178.897 277.5,173.5 Z"/></g>
<g><path style="opacity:1" fill="#241310" d="M 282.5,176.5 C 286.616,180.047 290.283,184.047 293.5,188.5C 296.168,189.738 298.834,189.738 301.5,188.5C 302.474,190.743 302.808,193.076 302.5,195.5C 302.5,195.833 302.5,196.167 302.5,196.5C 302.167,196.5 301.833,196.5 301.5,196.5C 299.901,196.232 298.568,196.566 297.5,197.5C 296.167,197.5 294.833,197.5 293.5,197.5C 292.5,197.5 291.5,197.5 290.5,197.5C 286.833,197.5 283.167,197.5 279.5,197.5C 277.031,196.683 274.365,196.183 271.5,196C 272.949,194.883 274.616,194.216 276.5,194C 275.5,193 274.5,192 273.5,191C 274.833,190.667 276.167,190.333 277.5,190C 276.2,185.55 276.2,181.05 277.5,176.5C 279.128,177.535 280.795,177.535 282.5,176.5 Z"/></g>
<g><path style="opacity:1" fill="#1a0d0e" d="M 210.5,173.5 C 210.938,173.435 211.272,173.601 211.5,174C 210.139,175.584 209.472,177.418 209.5,179.5C 209.173,181.488 208.84,183.488 208.5,185.5C 209.297,187.579 209.964,189.245 210.5,190.5C 212.507,188.992 214.174,187.158 215.5,185C 216.793,184.51 218.127,184.343 219.5,184.5C 222.708,186.074 224.042,188.741 223.5,192.5C 224.552,192.351 225.552,192.517 226.5,193C 224.561,193.908 223.561,195.408 223.5,197.5C 220.167,197.5 216.833,197.5 213.5,197.5C 210.214,196.793 206.881,196.46 203.5,196.5C 203.5,196.167 203.5,195.833 203.5,195.5C 204.165,188.191 205.832,181.191 208.5,174.5C 209.167,174.167 209.833,173.833 210.5,173.5 Z"/></g>
<g><path style="opacity:1" fill="#580c04" d="M 266.5,191.5 C 264.974,193.13 262.974,193.963 260.5,194C 262.81,194.497 265.143,194.663 267.5,194.5C 267.082,195.222 266.416,195.722 265.5,196C 265.833,196.333 266.167,196.667 266.5,197C 254.171,197.5 241.838,197.667 229.5,197.5C 229.196,196.85 228.863,196.183 228.5,195.5C 230.078,194.702 231.744,194.202 233.5,194C 232.263,193.768 231.263,193.268 230.5,192.5C 240.245,192.704 249.745,193.704 259,195.5C 259.49,194.207 259.657,192.873 259.5,191.5C 261.833,191.5 264.167,191.5 266.5,191.5 Z"/></g>
<g><path style="opacity:1" fill="#014195" d="M 213.5,197.5 C 216.833,197.5 220.167,197.5 223.5,197.5C 223.833,197.5 224.167,197.5 224.5,197.5C 224.5,197.833 224.5,198.167 224.5,198.5C 228.021,199.166 231.687,199.833 235.5,200.5C 235.062,201.506 234.396,201.506 233.5,200.5C 233.311,204.522 231.977,204.522 229.5,200.5C 229.167,201.5 228.833,202.5 228.5,203.5C 229.627,206.175 229.793,208.842 229,211.5C 231.188,209.903 233.354,209.569 235.5,210.5C 228.326,212.083 222.993,216.083 219.5,222.5C 215.503,228.828 213.836,235.828 214.5,243.5C 213.511,239.201 212.678,232.201 212,222.5C 211.5,233.161 211.333,243.828 211.5,254.5C 210.778,254.082 210.278,253.416 210,252.5C 209.5,242.839 209.334,233.172 209.5,223.5C 209.821,217.974 209.488,212.64 208.5,207.5C 209.634,204.63 210.3,201.63 210.5,198.5C 211.791,198.737 212.791,198.404 213.5,197.5 Z"/></g>
<g><path style="opacity:1" fill="#065cae" d="M 224.5,198.5 C 242.5,198.5 260.5,198.5 278.5,198.5C 278.573,204.207 278.24,209.541 277.5,214.5C 275.621,214.607 275.288,214.107 276.5,213C 275.833,212.667 275.167,212.333 274.5,212C 275.711,211.107 275.711,210.274 274.5,209.5C 272.37,210.467 270.37,211.634 268.5,213C 269.328,213.915 270.328,214.581 271.5,215C 270.978,215.561 270.645,216.228 270.5,217C 271.71,220.738 273.044,224.405 274.5,228C 273.332,229.406 273.665,230.572 275.5,231.5C 275.058,232.739 274.391,233.739 273.5,234.5C 272.925,231.088 271.592,228.088 269.5,225.5C 261.524,213.314 250.191,208.314 235.5,210.5C 233.354,209.569 231.188,209.903 229,211.5C 229.793,208.842 229.627,206.175 228.5,203.5C 228.833,202.5 229.167,201.5 229.5,200.5C 231.977,204.522 233.311,204.522 233.5,200.5C 234.396,201.506 235.062,201.506 235.5,200.5C 231.687,199.833 228.021,199.166 224.5,198.5 Z"/></g>
<g><path style="opacity:1" fill="#004bb6" d="M 203.5,196.5 C 206.881,196.46 210.214,196.793 213.5,197.5C 212.791,198.404 211.791,198.737 210.5,198.5C 210.3,201.63 209.634,204.63 208.5,207.5C 208.346,212.015 208.346,216.348 208.5,220.5C 207.5,220.5 206.5,220.5 205.5,220.5C 205.709,221.086 206.043,221.586 206.5,222C 204.706,231.243 203.873,240.743 204,250.5C 203.5,232.503 203.333,214.503 203.5,196.5 Z"/></g>
<g><path style="opacity:1" fill="#094795" d="M 279.5,197.5 C 283.167,197.5 286.833,197.5 290.5,197.5C 290.56,209.171 291.227,221.004 292.5,233C 292.6,235.302 293.267,237.302 294.5,239C 293.584,239.278 292.918,239.778 292.5,240.5C 291.325,240.719 290.325,240.386 289.5,239.5C 290.962,231.966 287.962,229.299 280.5,231.5C 280.062,231.565 279.728,231.399 279.5,231C 280.858,230.066 282.192,229.232 283.5,228.5C 285.081,226.858 285.747,224.858 285.5,222.5C 286.5,222.5 287.5,222.5 288.5,222.5C 288.08,224.674 288.08,226.674 288.5,228.5C 291.134,225.748 291.134,222.915 288.5,220C 287.5,219.333 286.5,219.333 285.5,220C 284.24,222.268 282.906,224.434 281.5,226.5C 280.319,224.865 280.319,223.198 281.5,221.5C 280.14,220.335 279.14,220.668 278.5,222.5C 277.814,221.152 276.814,219.985 275.5,219C 276.416,218.722 277.082,218.222 277.5,217.5C 277.5,216.833 277.5,216.167 277.5,215.5C 277.5,215.167 277.5,214.833 277.5,214.5C 278.24,209.541 278.573,204.207 278.5,198.5C 279.167,198.5 279.5,198.167 279.5,197.5 Z"/></g>
<g><path style="opacity:1" fill="#5375a4" d="M 285.5,209.5 C 290.584,209.966 291.25,211.632 287.5,214.5C 284.734,213.465 284.068,211.799 285.5,209.5 Z"/></g>
<g><path style="opacity:1" fill="#cc041c" d="M 226.5,255.5 C 225.096,243.208 224.763,230.874 225.5,218.5C 229.839,213.591 235.339,211.591 242,212.5C 249.17,212.01 255.337,214.177 260.5,219C 254.449,236.213 243.116,248.38 226.5,255.5 Z"/></g>
<g><path style="opacity:1" fill="#e7eef4" d="M 277.5,215.5 C 277.5,216.167 277.5,216.833 277.5,217.5C 273.5,216.833 273.5,216.167 277.5,215.5 Z"/></g>
<g><path style="opacity:1" fill="#c5c4c2" d="M 278.5,215.5 C 282.555,215.176 286.555,215.509 290.5,216.5C 288.5,216.833 286.5,217.167 284.5,217.5C 282.048,217.461 280.048,216.794 278.5,215.5 Z"/></g>
<g><path style="opacity:1" fill="#f8f6f8" d="M 235.5,210.5 C 250.191,208.314 261.524,213.314 269.5,225.5C 267.702,228.831 267.036,232.498 267.5,236.5C 265.971,242.874 262.304,247.707 256.5,251C 245.967,254.133 235.3,256.633 224.5,258.5C 223.508,258.672 222.842,258.338 222.5,257.5C 223.995,257.011 225.329,256.345 226.5,255.5C 243.116,248.38 254.449,236.213 260.5,219C 255.337,214.177 249.17,212.01 242,212.5C 235.339,211.591 229.839,213.591 225.5,218.5C 223.5,219.833 221.833,221.5 220.5,223.5C 219.833,223.5 219.5,223.167 219.5,222.5C 222.993,216.083 228.326,212.083 235.5,210.5 Z"/></g>
<g><path style="opacity:1" fill="#c9c9c7" d="M 283.5,228.5 C 279.092,228.938 277.425,226.938 278.5,222.5C 279.14,220.668 280.14,220.335 281.5,221.5C 280.319,223.198 280.319,224.865 281.5,226.5C 282.906,224.434 284.24,222.268 285.5,220C 286.5,219.333 287.5,219.333 288.5,220C 291.134,222.915 291.134,225.748 288.5,228.5C 288.08,226.674 288.08,224.674 288.5,222.5C 287.5,222.5 286.5,222.5 285.5,222.5C 285.747,224.858 285.081,226.858 283.5,228.5 Z"/></g>
<g><path style="opacity:1" fill="#900317" d="M 225.5,218.5 C 224.763,230.874 225.096,243.208 226.5,255.5C 225.329,256.345 223.995,257.011 222.5,257.5C 220.589,257.426 219.422,256.426 219,254.5C 215.33,243.902 215.83,233.569 220.5,223.5C 221.833,221.5 223.5,219.833 225.5,218.5 Z"/></g>
<g><path style="opacity:1" fill="#3f72b4" d="M 297.5,197.5 C 298.568,196.566 299.901,196.232 301.5,196.5C 300.168,214.159 298.834,231.826 297.5,249.5C 299.152,254.005 298.486,258.005 295.5,261.5C 294.651,259.106 293.651,256.773 292.5,254.5C 292.621,251.998 292.788,249.332 293,246.5C 293.374,245.584 293.874,244.75 294.5,244C 293.263,243.768 292.263,243.268 291.5,242.5C 292.675,242.719 293.675,242.386 294.5,241.5C 294.043,240.702 293.376,240.369 292.5,240.5C 292.918,239.778 293.584,239.278 294.5,239C 293.267,237.302 292.6,235.302 292.5,233C 291.227,221.004 290.56,209.171 290.5,197.5C 291.5,197.5 292.5,197.5 293.5,197.5C 293.884,211.406 295.051,225.406 297,239.5C 297.723,228.49 298.557,217.49 299.5,206.5C 299.483,203.087 298.816,200.087 297.5,197.5 Z"/></g>
<g><path style="opacity:1" fill="#698ac0" d="M 293.5,197.5 C 294.833,197.5 296.167,197.5 297.5,197.5C 298.816,200.087 299.483,203.087 299.5,206.5C 298.557,217.49 297.723,228.49 297,239.5C 295.051,225.406 293.884,211.406 293.5,197.5 Z"/></g>
<g><path style="opacity:1" fill="#153f8d" d="M 302.5,195.5 C 303.167,195.5 303.833,195.5 304.5,195.5C 305.826,216.598 305.826,237.598 304.5,258.5C 304.832,247.813 304.499,237.146 303.5,226.5C 302.305,241.478 301.472,256.478 301,271.5C 301.07,274.992 300.237,277.992 298.5,280.5C 299.377,257.306 301.043,233.973 303.5,210.5C 302.557,205.9 302.223,201.233 302.5,196.5C 302.5,196.167 302.5,195.833 302.5,195.5 Z"/></g>
<g><path style="opacity:1" fill="#0157aa" d="M 209.5,223.5 C 209.334,233.172 209.5,242.839 210,252.5C 210.278,253.416 210.778,254.082 211.5,254.5C 212.043,254.56 212.376,254.893 212.5,255.5C 209.833,257.167 209.833,258.833 212.5,260.5C 210.846,267.371 209.846,274.371 209.5,281.5C 208.5,281.5 207.5,281.5 206.5,281.5C 205.508,281.672 204.842,281.338 204.5,280.5C 205.649,280.209 206.316,279.376 206.5,278C 206.055,276.553 205.388,275.22 204.5,274C 206.462,268.522 207.129,263.022 206.5,257.5C 207.167,245.991 208.167,234.658 209.5,223.5 Z"/></g>
<g><path style="opacity:1" fill="#d4d3cf" d="M 292.5,240.5 C 293.376,240.369 294.043,240.702 294.5,241.5C 293.675,242.386 292.675,242.719 291.5,242.5C 289.167,242.5 286.833,242.5 284.5,242.5C 283.5,242.5 282.5,242.5 281.5,242.5C 277.989,239.107 277.656,235.441 280.5,231.5C 287.962,229.299 290.962,231.966 289.5,239.5C 290.325,240.386 291.325,240.719 292.5,240.5 Z"/></g>
<g><path style="opacity:1" fill="#1b3e8f" d="M 282.5,232.5 C 288.488,232.664 289.821,235.164 286.5,240C 280.403,240.147 279.07,237.647 282.5,232.5 Z"/></g>
<g><path style="opacity:1" fill="#0c448d" d="M 228.5,267.5 C 226.372,264.87 224.039,262.37 221.5,260C 222.737,259.768 223.737,259.268 224.5,258.5C 235.3,256.633 245.967,254.133 256.5,251C 262.304,247.707 265.971,242.874 267.5,236.5C 268.317,234.031 268.817,231.365 269,228.5C 274.548,242.263 272.048,254.43 261.5,265C 250.943,272.594 239.943,273.428 228.5,267.5 Z"/></g>
<g><path style="opacity:1" fill="#12358c" d="M 281.5,242.5 C 282.5,242.5 283.5,242.5 284.5,242.5C 285.609,243.29 286.942,243.79 288.5,244C 286.505,244.924 286.172,246.09 287.5,247.5C 289.092,249.992 288.592,251.992 286,253.5C 285.502,250.518 285.335,247.518 285.5,244.5C 284.167,244.5 282.833,244.5 281.5,244.5C 280.167,243.833 280.167,243.167 281.5,242.5 Z"/></g>
<g><path style="opacity:1" fill="#c7c6c3" d="M 281.5,244.5 C 282.833,244.5 284.167,244.5 285.5,244.5C 285.335,247.518 285.502,250.518 286,253.5C 288.592,251.992 289.092,249.992 287.5,247.5C 287.369,246.761 287.536,246.094 288,245.5C 288.708,246.381 289.542,247.047 290.5,247.5C 291.226,251.26 289.893,253.927 286.5,255.5C 280,256.501 277.5,253.835 279,247.5C 280.045,246.627 280.878,245.627 281.5,244.5 Z"/></g>
<g><path style="opacity:1" fill="#0f61ab" d="M 277.5,214.5 C 277.5,214.833 277.5,215.167 277.5,215.5C 273.5,216.167 273.5,216.833 277.5,217.5C 277.082,218.222 276.416,218.722 275.5,219C 276.814,219.985 277.814,221.152 278.5,222.5C 277.425,226.938 279.092,228.938 283.5,228.5C 282.192,229.232 280.858,230.066 279.5,231C 279.728,231.399 280.062,231.565 280.5,231.5C 277.656,235.441 277.989,239.107 281.5,242.5C 280.167,243.167 280.167,243.833 281.5,244.5C 280.878,245.627 280.045,246.627 279,247.5C 277.5,253.835 280,256.501 286.5,255.5C 284.833,256.167 283.167,256.833 281.5,257.5C 277.513,261.545 277.513,265.545 281.5,269.5C 280.871,274.318 280.871,279.318 281.5,284.5C 280.5,284.5 279.5,284.5 278.5,284.5C 274.688,283.676 270.688,283.176 266.5,283C 265.692,282.692 265.025,282.192 264.5,281.5C 266.644,280.718 268.644,279.551 270.5,278C 268.302,276.33 267.968,274.33 269.5,272C 268.167,272 266.833,272 265.5,272C 268.276,270.221 267.943,269.221 264.5,269C 266.125,268.147 266.458,267.147 265.5,266C 266.851,264.186 267.851,264.519 268.5,267C 269.448,267.483 270.448,267.649 271.5,267.5C 271.474,262.807 271.474,258.474 271.5,254.5C 273.324,248.012 273.991,241.346 273.5,234.5C 274.391,233.739 275.058,232.739 275.5,231.5C 273.665,230.572 273.332,229.406 274.5,228C 273.044,224.405 271.71,220.738 270.5,217C 270.645,216.228 270.978,215.561 271.5,215C 270.328,214.581 269.328,213.915 268.5,213C 270.37,211.634 272.37,210.467 274.5,209.5C 275.711,210.274 275.711,211.107 274.5,212C 275.167,212.333 275.833,212.667 276.5,213C 275.288,214.107 275.621,214.607 277.5,214.5 Z"/></g>
<g><path style="opacity:1" fill="#134094" d="M 281.5,246.5 C 282.725,247.152 283.392,248.319 283.5,250C 282.709,254.448 281.709,254.448 280.5,250C 280.648,248.744 280.982,247.577 281.5,246.5 Z"/></g>
<g><path style="opacity:1" fill="#045bc1" d="M 203.5,195.5 C 203.5,195.833 203.5,196.167 203.5,196.5C 203.333,214.503 203.5,232.503 204,250.5C 203.873,240.743 204.706,231.243 206.5,222C 206.043,221.586 205.709,221.086 205.5,220.5C 206.5,220.5 207.5,220.5 208.5,220.5C 208.346,216.348 208.346,212.015 208.5,207.5C 209.488,212.64 209.821,217.974 209.5,223.5C 208.167,234.658 207.167,245.991 206.5,257.5C 207.129,263.022 206.462,268.522 204.5,274C 205.388,275.22 206.055,276.553 206.5,278C 206.316,279.376 205.649,280.209 204.5,280.5C 204.167,280.5 203.833,280.5 203.5,280.5C 203.5,279.833 203.167,279.5 202.5,279.5C 202.169,251.328 202.502,223.328 203.5,195.5 Z"/></g>
<g><path style="opacity:1" fill="#e0e9f3" d="M 269.5,225.5 C 271.592,228.088 272.925,231.088 273.5,234.5C 273.991,241.346 273.324,248.012 271.5,254.5C 263.219,270.804 250.219,276.471 232.5,271.5C 230.668,270.752 229.001,269.752 227.5,268.5C 227.5,267.833 227.833,267.5 228.5,267.5C 239.943,273.428 250.943,272.594 261.5,265C 272.048,254.43 274.548,242.263 269,228.5C 268.817,231.365 268.317,234.031 267.5,236.5C 267.036,232.498 267.702,228.831 269.5,225.5 Z"/></g>
<g><path style="opacity:1" fill="#053a8e" d="M 290.5,247.5 C 291.398,253.583 292.398,259.75 293.5,266C 292.207,266.49 290.873,266.657 289.5,266.5C 291.278,259.931 288.612,256.931 281.5,257.5C 283.167,256.833 284.833,256.167 286.5,255.5C 289.893,253.927 291.226,251.26 290.5,247.5 Z"/></g>
<g><path style="opacity:1" fill="#a2bad7" d="M 219.5,222.5 C 219.5,223.167 219.833,223.5 220.5,223.5C 215.83,233.569 215.33,243.902 219,254.5C 219.422,256.426 220.589,257.426 222.5,257.5C 222.842,258.338 223.508,258.672 224.5,258.5C 223.737,259.268 222.737,259.768 221.5,260C 224.039,262.37 226.372,264.87 228.5,267.5C 227.833,267.5 227.5,267.833 227.5,268.5C 219.719,261.938 215.386,253.604 214.5,243.5C 213.836,235.828 215.503,228.828 219.5,222.5 Z"/></g>
<g><path style="opacity:1" fill="#0939a7" d="M 304.5,258.5 C 304.5,265.833 304.5,273.167 304.5,280.5C 303.508,280.328 302.842,280.662 302.5,281.5C 301.5,281.5 300.5,281.5 299.5,281.5C 298.833,281.5 298.5,281.167 298.5,280.5C 300.237,277.992 301.07,274.992 301,271.5C 301.472,256.478 302.305,241.478 303.5,226.5C 304.499,237.146 304.832,247.813 304.5,258.5 Z"/></g>
<g><path style="opacity:1" fill="#024392" d="M 214.5,243.5 C 215.386,253.604 219.719,261.938 227.5,268.5C 229.001,269.752 230.668,270.752 232.5,271.5C 232.44,272.043 232.107,272.376 231.5,272.5C 229.201,271.365 227.034,270.032 225,268.5C 224.505,270.473 224.338,272.473 224.5,274.5C 223.448,274.351 222.448,274.517 221.5,275C 222.833,275.333 224.167,275.667 225.5,276C 225.169,279.523 223.502,282.023 220.5,283.5C 218.167,283.5 215.833,283.5 213.5,283.5C 213.158,282.662 212.492,282.328 211.5,282.5C 210.508,282.672 209.842,282.338 209.5,281.5C 209.846,274.371 210.846,267.371 212.5,260.5C 209.833,258.833 209.833,257.167 212.5,255.5C 212.376,254.893 212.043,254.56 211.5,254.5C 211.333,243.828 211.5,233.161 212,222.5C 212.678,232.201 213.511,239.201 214.5,243.5 Z"/></g>
<g><path style="opacity:1" fill="#d0d0ce" d="M 281.5,257.5 C 288.612,256.931 291.278,259.931 289.5,266.5C 290.387,267.304 292.053,267.971 294.5,268.5C 294.376,269.107 294.043,269.44 293.5,269.5C 289.5,269.5 285.5,269.5 281.5,269.5C 277.513,265.545 277.513,261.545 281.5,257.5 Z"/></g>
<g><path style="opacity:1" fill="#224392" d="M 282.5,259.5 C 288.488,259.664 289.821,262.164 286.5,267C 280.202,267.495 278.868,264.995 282.5,259.5 Z"/></g>
<g><path style="opacity:1" fill="#1d65b5" d="M 301.5,196.5 C 301.833,196.5 302.167,196.5 302.5,196.5C 302.223,201.233 302.557,205.9 303.5,210.5C 301.043,233.973 299.377,257.306 298.5,280.5C 298.5,281.167 298.833,281.5 299.5,281.5C 298.081,282.451 296.415,282.784 294.5,282.5C 293.761,282.631 293.094,282.464 292.5,282C 292.392,277.863 292.725,273.697 293.5,269.5C 294.043,269.44 294.376,269.107 294.5,268.5C 292.053,267.971 290.387,267.304 289.5,266.5C 290.873,266.657 292.207,266.49 293.5,266C 292.398,259.75 291.398,253.583 290.5,247.5C 289.542,247.047 288.708,246.381 288,245.5C 287.536,246.094 287.369,246.761 287.5,247.5C 286.172,246.09 286.505,244.924 288.5,244C 286.942,243.79 285.609,243.29 284.5,242.5C 286.833,242.5 289.167,242.5 291.5,242.5C 292.263,243.268 293.263,243.768 294.5,244C 293.874,244.75 293.374,245.584 293,246.5C 292.788,249.332 292.621,251.998 292.5,254.5C 293.651,256.773 294.651,259.106 295.5,261.5C 298.486,258.005 299.152,254.005 297.5,249.5C 298.834,231.826 300.168,214.159 301.5,196.5 Z"/></g>
<g><path style="opacity:1" fill="#014291" d="M 281.5,269.5 C 285.5,269.5 289.5,269.5 293.5,269.5C 292.725,273.697 292.392,277.863 292.5,282C 293.094,282.464 293.761,282.631 294.5,282.5C 294.5,283.167 294.167,283.5 293.5,283.5C 289.519,284.021 285.519,284.354 281.5,284.5C 280.871,279.318 280.871,274.318 281.5,269.5 Z"/></g>
<g><path style="opacity:1" fill="#055aac" d="M 271.5,254.5 C 271.474,258.474 271.474,262.807 271.5,267.5C 270.448,267.649 269.448,267.483 268.5,267C 267.851,264.519 266.851,264.186 265.5,266C 266.458,267.147 266.125,268.147 264.5,269C 267.943,269.221 268.276,270.221 265.5,272C 266.833,272 268.167,272 269.5,272C 267.968,274.33 268.302,276.33 270.5,278C 268.644,279.551 266.644,280.718 264.5,281.5C 265.025,282.192 265.692,282.692 266.5,283C 270.688,283.176 274.688,283.676 278.5,284.5C 278.5,284.833 278.5,285.167 278.5,285.5C 275.5,285.5 272.5,285.5 269.5,285.5C 261.5,285.5 253.5,285.5 245.5,285.5C 240.833,285.5 236.167,285.5 231.5,285.5C 228.038,284.518 224.371,284.185 220.5,284.5C 220.5,284.167 220.5,283.833 220.5,283.5C 223.502,282.023 225.169,279.523 225.5,276C 224.167,275.667 222.833,275.333 221.5,275C 222.448,274.517 223.448,274.351 224.5,274.5C 224.338,272.473 224.505,270.473 225,268.5C 227.034,270.032 229.201,271.365 231.5,272.5C 232.107,272.376 232.44,272.043 232.5,271.5C 250.219,276.471 263.219,270.804 271.5,254.5 Z"/></g>
<g><path style="opacity:1" fill="#1c0c0b" d="M 293.5,283.5 C 292.736,287.257 292.402,290.924 292.5,294.5C 287.828,295.501 283.161,296.501 278.5,297.5C 277.637,298.463 276.97,298.463 276.5,297.5C 277.76,296.618 278.926,295.618 280,294.5C 280.147,291.429 280.98,288.596 282.5,286C 281.207,285.51 279.873,285.343 278.5,285.5C 278.5,285.167 278.5,284.833 278.5,284.5C 279.5,284.5 280.5,284.5 281.5,284.5C 285.519,284.354 289.519,284.021 293.5,283.5 Z"/></g>
<g><path style="opacity:1" fill="#992108" d="M 231.5,285.5 C 236.167,285.5 240.833,285.5 245.5,285.5C 249.312,286.324 253.312,286.824 257.5,287C 254.5,287.333 251.5,287.667 248.5,288C 246.382,288.26 244.716,289.26 243.5,291C 250.886,291.556 258.219,291.556 265.5,291C 264.584,291.278 263.918,291.778 263.5,292.5C 252.828,292.667 242.161,292.5 231.5,292C 230.167,291.333 229.167,290.333 228.5,289C 230.056,288.28 231.056,287.113 231.5,285.5 Z"/></g>
<g><path style="opacity:1" fill="#2c1412" d="M 213.5,283.5 C 215.833,283.5 218.167,283.5 220.5,283.5C 220.5,283.833 220.5,284.167 220.5,284.5C 220.567,286.401 220.233,288.234 219.5,290C 219.639,291.301 220.305,292.134 221.5,292.5C 221.5,293.833 221.5,295.167 221.5,296.5C 219.236,295.781 216.903,295.448 214.5,295.5C 213.867,291.456 213.534,287.456 213.5,283.5 Z"/></g>
<g><path style="opacity:1" fill="#801807" d="M 245.5,285.5 C 253.5,285.5 261.5,285.5 269.5,285.5C 269.923,286.265 270.257,287.098 270.5,288C 269.586,289.406 268.92,290.906 268.5,292.5C 266.833,292.5 265.167,292.5 263.5,292.5C 263.918,291.778 264.584,291.278 265.5,291C 258.219,291.556 250.886,291.556 243.5,291C 244.716,289.26 246.382,288.26 248.5,288C 251.5,287.667 254.5,287.333 257.5,287C 253.312,286.824 249.312,286.324 245.5,285.5 Z"/></g>
<g><path style="opacity:1" fill="#522519" d="M 269.5,285.5 C 272.5,285.5 275.5,285.5 278.5,285.5C 277.77,286.712 276.77,287.712 275.5,288.5C 276.09,289.799 277.09,290.632 278.5,291C 275.649,292.289 272.649,292.789 269.5,292.5C 269.167,292.5 268.833,292.5 268.5,292.5C 268.92,290.906 269.586,289.406 270.5,288C 270.257,287.098 269.923,286.265 269.5,285.5 Z"/></g>
<g><path style="opacity:1" fill="#81716d" d="M 304.5,280.5 C 304.876,286.34 304.21,292.006 302.5,297.5C 301.35,298.85 300.683,298.684 300.5,297C 302.121,291.962 302.787,286.795 302.5,281.5C 302.842,280.662 303.508,280.328 304.5,280.5 Z"/></g>
<g><path style="opacity:1" fill="#831b05" d="M 231.5,285.5 C 231.056,287.113 230.056,288.28 228.5,289C 229.167,290.333 230.167,291.333 231.5,292C 242.161,292.5 252.828,292.667 263.5,292.5C 258.983,293.166 254.317,293.833 249.5,294.5C 250.025,295.192 250.692,295.692 251.5,296C 244.5,296.667 237.5,296.667 230.5,296C 229.965,293.891 228.965,293.391 227.5,294.5C 226.41,293.273 225.076,292.44 223.5,292C 224.167,291.667 224.833,291.333 225.5,291C 223.963,289.89 223.297,288.39 223.5,286.5C 226.237,286.599 228.904,286.265 231.5,285.5 Z"/></g>
<g><path style="opacity:1" fill="#681806" d="M 220.5,284.5 C 224.371,284.185 228.038,284.518 231.5,285.5C 228.904,286.265 226.237,286.599 223.5,286.5C 223.297,288.39 223.963,289.89 225.5,291C 224.833,291.333 224.167,291.667 223.5,292C 225.076,292.44 226.41,293.273 227.5,294.5C 228.965,293.391 229.965,293.891 230.5,296C 237.5,296.667 244.5,296.667 251.5,296C 250.692,295.692 250.025,295.192 249.5,294.5C 254.317,293.833 258.983,293.166 263.5,292.5C 265.167,292.5 266.833,292.5 268.5,292.5C 268.833,292.5 269.167,292.5 269.5,292.5C 269.5,292.833 269.5,293.167 269.5,293.5C 268.878,295.335 267.544,296.502 265.5,297C 262.475,297.361 259.475,297.861 256.5,298.5C 247.194,297.719 237.861,297.219 228.5,297C 227.167,296.667 225.833,296.333 224.5,296C 223.837,294.482 222.837,293.315 221.5,292.5C 220.305,292.134 219.639,291.301 219.5,290C 220.233,288.234 220.567,286.401 220.5,284.5 Z"/></g>
<g><path style="opacity:1" fill="#7a6b65" d="M 206.5,281.5 C 207.5,281.5 208.5,281.5 209.5,281.5C 209.842,282.338 210.508,282.672 211.5,282.5C 212.166,287.137 212.833,291.803 213.5,296.5C 213.167,297.5 212.5,298.167 211.5,298.5C 208.037,293.447 206.37,287.78 206.5,281.5 Z"/></g>
<g><path style="opacity:1" fill="#684f49" d="M 201.5,279.5 C 201.833,279.5 202.167,279.5 202.5,279.5C 203.167,279.5 203.5,279.833 203.5,280.5C 203.334,284.514 203.501,288.514 204,292.5C 206.742,300.894 209.576,309.227 212.5,317.5C 212.005,319.482 211.505,321.482 211,323.5C 210.517,322.552 210.351,321.552 210.5,320.5C 210.784,318.585 210.451,316.919 209.5,315.5C 206.505,307.681 204.005,299.681 202,291.5C 201.501,287.514 201.334,283.514 201.5,279.5 Z"/></g>
<g><path style="opacity:1" fill="#32221d" d="M 299.5,281.5 C 300.5,281.5 301.5,281.5 302.5,281.5C 302.787,286.795 302.121,291.962 300.5,297C 300.683,298.684 301.35,298.85 302.5,297.5C 302.34,299.153 301.674,300.486 300.5,301.5C 300.631,300.624 300.298,299.957 299.5,299.5C 298.062,304.022 296.395,308.356 294.5,312.5C 294.698,310.425 294.865,308.425 295,306.5C 291.291,309.715 287.458,312.715 283.5,315.5C 283.082,314.778 282.416,314.278 281.5,314C 282.308,313.692 282.975,313.192 283.5,312.5C 283.173,307.527 280.84,305.86 276.5,307.5C 276.5,306.167 276.5,304.833 276.5,303.5C 277.476,302.185 278.476,300.852 279.5,299.5C 279.137,298.817 278.804,298.15 278.5,297.5C 283.161,296.501 287.828,295.501 292.5,294.5C 292.402,290.924 292.736,287.257 293.5,283.5C 294.167,283.5 294.5,283.167 294.5,282.5C 296.415,282.784 298.081,282.451 299.5,281.5 Z"/></g>
<g><path style="opacity:1" fill="#2b0902" d="M 278.5,285.5 C 279.873,285.343 281.207,285.51 282.5,286C 280.98,288.596 280.147,291.429 280,294.5C 278.926,295.618 277.76,296.618 276.5,297.5C 276.97,298.463 277.637,298.463 278.5,297.5C 278.804,298.15 279.137,298.817 279.5,299.5C 278.476,300.852 277.476,302.185 276.5,303.5C 275.417,303.539 274.417,303.873 273.5,304.5C 272.77,306.341 272.103,308.175 271.5,310C 263.666,311.28 255.999,312.78 248.5,314.5C 245.763,314.401 243.096,314.735 240.5,315.5C 237.172,315.43 234.172,315.096 231.5,314.5C 229.584,309.606 228.418,304.606 228,299.5C 230.202,300.402 232.368,301.402 234.5,302.5C 233.307,305.473 233.973,305.973 236.5,304C 242.167,303.667 247.833,303.333 253.5,303C 259.308,301.365 264.975,299.365 270.5,297C 271.985,295.244 271.652,294.077 269.5,293.5C 269.5,293.167 269.5,292.833 269.5,292.5C 272.649,292.789 275.649,292.289 278.5,291C 277.09,290.632 276.09,289.799 275.5,288.5C 276.77,287.712 277.77,286.712 278.5,285.5 Z"/></g>
<g><path style="opacity:1" fill="#4b342c" d="M 203.5,280.5 C 203.833,280.5 204.167,280.5 204.5,280.5C 204.842,281.338 205.508,281.672 206.5,281.5C 206.37,287.78 208.037,293.447 211.5,298.5C 212.5,298.167 213.167,297.5 213.5,296.5C 212.833,291.803 212.166,287.137 211.5,282.5C 212.492,282.328 213.158,282.662 213.5,283.5C 213.534,287.456 213.867,291.456 214.5,295.5C 216.903,295.448 219.236,295.781 221.5,296.5C 221.395,298.675 221.395,300.842 221.5,303C 221,303.5 220.5,304 220,304.5C 219.333,303.167 218.667,301.833 218,300.5C 216.783,302.507 215.949,304.674 215.5,307C 216.107,310.143 216.441,313.31 216.5,316.5C 215.041,316.433 213.708,316.766 212.5,317.5C 209.576,309.227 206.742,300.894 204,292.5C 203.501,288.514 203.334,284.514 203.5,280.5 Z"/></g>
<g><path style="opacity:1" fill="#472014" d="M 276.5,303.5 C 276.5,304.833 276.5,306.167 276.5,307.5C 280.84,305.86 283.173,307.527 283.5,312.5C 282.975,313.192 282.308,313.692 281.5,314C 282.416,314.278 283.082,314.778 283.5,315.5C 282.128,316.512 280.795,317.512 279.5,318.5C 276.921,318.394 274.588,319.061 272.5,320.5C 271.791,319.596 270.791,319.263 269.5,319.5C 269.357,317.738 269.691,316.071 270.5,314.5C 269.975,313.808 269.308,313.308 268.5,313C 261.855,313.382 255.188,313.882 248.5,314.5C 255.999,312.78 263.666,311.28 271.5,310C 272.103,308.175 272.77,306.341 273.5,304.5C 274.417,303.873 275.417,303.539 276.5,303.5 Z"/></g>
<g><path style="opacity:0.004" fill="#000000" d="M 209.5,315.5 C 208.833,316.167 208.833,316.167 209.5,315.5 Z"/></g>
<g><path style="opacity:1" fill="#1f0905" d="M 294.5,312.5 C 294.5,313.167 294.5,313.833 294.5,314.5C 292.62,317.969 292.287,321.635 293.5,325.5C 289.849,325.162 288.183,326.828 288.5,330.5C 286.669,331.052 285.003,331.052 283.5,330.5C 282.358,327.601 281.692,324.601 281.5,321.5C 277.36,322.044 276.693,321.044 279.5,318.5C 280.795,317.512 282.128,316.512 283.5,315.5C 287.458,312.715 291.291,309.715 295,306.5C 294.865,308.425 294.698,310.425 294.5,312.5 Z"/></g>
<g><path style="opacity:1" fill="#250d07" d="M 222.5,320.5 C 225.833,320.5 229.167,320.5 232.5,320.5C 232.342,323.545 233.009,326.379 234.5,329C 231.162,330.988 230.828,333.321 233.5,336C 232.692,336.308 232.025,336.808 231.5,337.5C 232.641,338.425 232.641,339.259 231.5,340C 232.308,340.308 232.975,340.808 233.5,341.5C 231.73,342.82 231.397,344.32 232.5,346C 231.966,349.506 230.633,352.672 228.5,355.5C 230.87,357.688 231.537,360.188 230.5,363C 232.364,364.431 234.364,365.597 236.5,366.5C 238.247,369.534 239.247,372.868 239.5,376.5C 237.265,376.795 235.265,376.461 233.5,375.5C 232.587,373.914 232.587,372.414 233.5,371C 232.373,369.247 231.373,367.413 230.5,365.5C 229.675,364.614 228.675,364.281 227.5,364.5C 227.74,361.421 227.407,358.421 226.5,355.5C 227.09,354.201 228.09,353.368 229.5,353C 228.833,345.667 228.167,338.333 227.5,331C 227.957,330.586 228.291,330.086 228.5,329.5C 227.478,328.646 226.645,327.646 226,326.5C 225.517,327.448 225.351,328.448 225.5,329.5C 224.5,329.5 223.5,329.5 222.5,329.5C 221.123,332.524 219.789,335.524 218.5,338.5C 218.921,332.163 220.254,326.163 222.5,320.5 Z"/></g>
<g><path style="opacity:1" fill="#6b1f06" d="M 240.5,319.5 C 247.504,321.924 254.837,322.924 262.5,322.5C 262.082,323.222 261.416,323.722 260.5,324C 262.158,324.725 262.658,325.892 262,327.5C 260.686,328.313 259.519,329.313 258.5,330.5C 257.833,330.167 257.167,329.833 256.5,329.5C 253.008,331.174 249.674,332.841 246.5,334.5C 245.833,334.5 245.167,334.5 244.5,334.5C 243.069,333.918 241.736,333.085 240.5,332C 242.563,329.128 244.229,326.462 245.5,324C 242.715,323.441 240.382,322.108 238.5,320C 239.094,319.536 239.761,319.369 240.5,319.5 Z"/></g>
<g><path style="opacity:1" fill="#432a23" d="M 221.5,296.5 C 222.999,297.678 223.999,299.345 224.5,301.5C 227.733,308.104 226.733,313.771 221.5,318.5C 221.863,319.183 222.196,319.85 222.5,320.5C 220.254,326.163 218.921,332.163 218.5,338.5C 217.833,338.833 217.167,339.167 216.5,339.5C 214.775,342.625 213.275,345.958 212,349.5C 211.667,349.167 211.333,348.833 211,348.5C 210.801,356.245 210.301,363.912 209.5,371.5C 201.031,390.658 203.364,408.491 216.5,425C 217.901,425.41 219.234,425.91 220.5,426.5C 224.543,431.487 229.543,432.653 235.5,430C 235.167,429.667 234.833,429.333 234.5,429C 236.9,424.574 239.567,420.407 242.5,416.5C 241.694,412.245 240.361,408.245 238.5,404.5C 238.842,403.662 239.508,403.328 240.5,403.5C 240.5,404.167 240.833,404.5 241.5,404.5C 242.979,406.69 244.312,409.024 245.5,411.5C 246.577,412.705 247.91,413.372 249.5,413.5C 253.429,416.472 252.762,417.139 247.5,415.5C 246.263,415.556 245.263,416.056 244.5,417C 247.982,419.396 248.148,422.229 245,425.5C 243.581,426.46 242.081,427.293 240.5,428C 240.728,428.399 241.062,428.565 241.5,428.5C 231.23,434.669 221.897,433.336 213.5,424.5C 213.5,424.167 213.5,423.833 213.5,423.5C 213.068,422.29 212.401,421.29 211.5,420.5C 210.833,420.5 210.5,420.833 210.5,421.5C 208.274,418.055 206.274,414.389 204.5,410.5C 204.833,409.833 205.167,409.167 205.5,408.5C 203.775,404.158 202.775,399.658 202.5,395C 204.693,383.869 206.693,372.702 208.5,361.5C 208.071,354.402 207.071,347.402 205.5,340.5C 207.183,333.723 208.85,327.056 210.5,320.5C 210.351,321.552 210.517,322.552 211,323.5C 211.505,321.482 212.005,319.482 212.5,317.5C 213.708,316.766 215.041,316.433 216.5,316.5C 216.441,313.31 216.107,310.143 215.5,307C 215.949,304.674 216.783,302.507 218,300.5C 218.667,301.833 219.333,303.167 220,304.5C 220.5,304 221,303.5 221.5,303C 221.395,300.842 221.395,298.675 221.5,296.5 Z"/></g>
<g><path style="opacity:1" fill="#3e1306" d="M 221.5,292.5 C 222.837,293.315 223.837,294.482 224.5,296C 225.833,296.333 227.167,296.667 228.5,297C 237.861,297.219 247.194,297.719 256.5,298.5C 259.475,297.861 262.475,297.361 265.5,297C 267.544,296.502 268.878,295.335 269.5,293.5C 271.652,294.077 271.985,295.244 270.5,297C 264.975,299.365 259.308,301.365 253.5,303C 247.833,303.333 242.167,303.667 236.5,304C 233.973,305.973 233.307,305.473 234.5,302.5C 232.368,301.402 230.202,300.402 228,299.5C 228.418,304.606 229.584,309.606 231.5,314.5C 234.172,315.096 237.172,315.43 240.5,315.5C 236.768,318.489 232.601,319.156 228,317.5C 227.25,318.126 226.416,318.626 225.5,319C 228.5,319.333 231.5,319.667 234.5,320C 236.481,320.605 236.815,321.605 235.5,323C 236.167,323.333 236.833,323.667 237.5,324C 236.167,325 236.167,326 237.5,327C 234.936,328.851 234.936,330.684 237.5,332.5C 235.96,333.532 235.46,334.865 236,336.5C 236.667,335.833 237.333,335.167 238,334.5C 237.923,335.738 238.089,336.738 238.5,337.5C 240.604,336.481 242.604,335.481 244.5,334.5C 245.167,334.5 245.833,334.5 246.5,334.5C 247.239,334.369 247.906,334.536 248.5,335C 247.377,336.044 246.044,336.71 244.5,337C 245.061,338.566 244.394,339.899 242.5,341C 245.332,342.908 244.999,343.741 241.5,343.5C 241.067,346.285 239.734,348.619 237.5,350.5C 238.128,352.258 239.128,353.758 240.5,355C 240.167,355.333 239.833,355.667 239.5,356C 241.649,356.579 243.815,357.079 246,357.5C 247.876,357.475 249.376,356.809 250.5,355.5C 252.035,354.646 253.368,354.646 254.5,355.5C 253.167,356.167 251.833,356.833 250.5,357.5C 247.833,358.5 245.167,359.5 242.5,360.5C 240.914,361.413 239.414,361.413 238,360.5C 237.5,361.5 237,362.5 236.5,363.5C 238.643,365.21 240.977,366.543 243.5,367.5C 241.139,367.326 238.806,366.993 236.5,366.5C 234.364,365.597 232.364,364.431 230.5,363C 231.537,360.188 230.87,357.688 228.5,355.5C 230.633,352.672 231.966,349.506 232.5,346C 231.397,344.32 231.73,342.82 233.5,341.5C 232.975,340.808 232.308,340.308 231.5,340C 232.641,339.259 232.641,338.425 231.5,337.5C 232.025,336.808 232.692,336.308 233.5,336C 230.828,333.321 231.162,330.988 234.5,329C 233.009,326.379 232.342,323.545 232.5,320.5C 229.167,320.5 225.833,320.5 222.5,320.5C 222.196,319.85 221.863,319.183 221.5,318.5C 226.733,313.771 227.733,308.104 224.5,301.5C 223.999,299.345 222.999,297.678 221.5,296.5C 221.5,295.167 221.5,293.833 221.5,292.5 Z"/></g>
<g><path style="opacity:1" fill="#32120b" d="M 294.5,314.5 C 294.368,317.57 294.701,320.57 295.5,323.5C 294.719,329.294 293.886,334.961 293,340.5C 287.738,344.063 284.571,342.73 283.5,336.5C 281.045,332.272 279.712,327.606 279.5,322.5C 277.857,322.52 276.524,321.853 275.5,320.5C 273.393,321.637 271.227,322.637 269,323.5C 268.235,323.43 267.735,323.097 267.5,322.5C 267.833,322.5 268.167,322.5 268.5,322.5C 269.833,321.833 271.167,321.167 272.5,320.5C 274.588,319.061 276.921,318.394 279.5,318.5C 276.693,321.044 277.36,322.044 281.5,321.5C 281.692,324.601 282.358,327.601 283.5,330.5C 285.003,331.052 286.669,331.052 288.5,330.5C 288.183,326.828 289.849,325.162 293.5,325.5C 292.287,321.635 292.62,317.969 294.5,314.5 Z"/></g>
<g><path style="opacity:1" fill="#561001" d="M 267.5,322.5 C 267.735,323.097 268.235,323.43 269,323.5C 271.227,322.637 273.393,321.637 275.5,320.5C 276.524,321.853 277.857,322.52 279.5,322.5C 279.712,327.606 281.045,332.272 283.5,336.5C 283.107,338.284 282.441,339.95 281.5,341.5C 278.663,339.153 276.83,336.153 276,332.5C 269.539,333.643 263.039,335.476 256.5,338C 252.958,341.379 249.958,345.212 247.5,349.5C 248.912,350.806 250.579,351.64 252.5,352C 249.629,352.118 246.962,352.784 244.5,354C 246.586,354.315 248.586,354.815 250.5,355.5C 249.376,356.809 247.876,357.475 246,357.5C 243.815,357.079 241.649,356.579 239.5,356C 239.833,355.667 240.167,355.333 240.5,355C 239.128,353.758 238.128,352.258 237.5,350.5C 239.734,348.619 241.067,346.285 241.5,343.5C 244.999,343.741 245.332,342.908 242.5,341C 244.394,339.899 245.061,338.566 244.5,337C 246.044,336.71 247.377,336.044 248.5,335C 247.906,334.536 247.239,334.369 246.5,334.5C 249.674,332.841 253.008,331.174 256.5,329.5C 257.167,329.833 257.833,330.167 258.5,330.5C 259.519,329.313 260.686,328.313 262,327.5C 262.658,325.892 262.158,324.725 260.5,324C 261.416,323.722 262.082,323.222 262.5,322.5C 264.017,322.489 265.184,321.823 266,320.5C 266.278,321.416 266.778,322.082 267.5,322.5 Z"/></g>
<g><path style="opacity:1" fill="#521503" d="M 272.5,320.5 C 271.167,321.167 269.833,321.833 268.5,322.5C 268.489,320.983 267.823,319.816 266.5,319C 262.571,317.532 258.571,316.365 254.5,315.5C 249.39,315.712 244.723,317.046 240.5,319.5C 239.761,319.369 239.094,319.536 238.5,320C 240.382,322.108 242.715,323.441 245.5,324C 244.229,326.462 242.563,329.128 240.5,332C 241.736,333.085 243.069,333.918 244.5,334.5C 242.604,335.481 240.604,336.481 238.5,337.5C 238.089,336.738 237.923,335.738 238,334.5C 237.333,335.167 236.667,335.833 236,336.5C 235.46,334.865 235.96,333.532 237.5,332.5C 234.936,330.684 234.936,328.851 237.5,327C 236.167,326 236.167,325 237.5,324C 236.833,323.667 236.167,323.333 235.5,323C 236.815,321.605 236.481,320.605 234.5,320C 231.5,319.667 228.5,319.333 225.5,319C 226.416,318.626 227.25,318.126 228,317.5C 232.601,319.156 236.768,318.489 240.5,315.5C 243.096,314.735 245.763,314.401 248.5,314.5C 255.188,313.882 261.855,313.382 268.5,313C 269.308,313.308 269.975,313.808 270.5,314.5C 269.691,316.071 269.357,317.738 269.5,319.5C 270.791,319.263 271.791,319.596 272.5,320.5 Z"/></g>
<g><path style="opacity:1" fill="#851e06" d="M 268.5,322.5 C 268.167,322.5 267.833,322.5 267.5,322.5C 266.778,322.082 266.278,321.416 266,320.5C 265.184,321.823 264.017,322.489 262.5,322.5C 254.837,322.924 247.504,321.924 240.5,319.5C 244.723,317.046 249.39,315.712 254.5,315.5C 258.571,316.365 262.571,317.532 266.5,319C 267.823,319.816 268.489,320.983 268.5,322.5 Z"/></g>
<g><path style="opacity:1" fill="#150503" d="M 233.5,375.5 C 230.956,375.104 228.789,375.771 227,377.5C 225.496,380.684 223.996,383.851 222.5,387C 223.833,387.333 225.167,387.667 226.5,388C 223.432,389.016 220.432,390.183 217.5,391.5C 218.325,392.386 219.325,392.719 220.5,392.5C 221.968,393.779 222.635,395.446 222.5,397.5C 226.801,398.328 230.135,400.661 232.5,404.5C 229.364,407.104 227.531,410.438 227,414.5C 225.853,413.542 224.853,413.875 224,415.5C 223.218,412.924 221.718,410.924 219.5,409.5C 218.252,406.93 217.252,404.263 216.5,401.5C 214.87,400.102 213.036,399.102 211,398.5C 210.436,395.845 209.936,393.179 209.5,390.5C 212.705,378.198 215.705,365.531 218.5,352.5C 217.897,348.111 217.23,343.778 216.5,339.5C 217.167,339.167 217.833,338.833 218.5,338.5C 219.789,335.524 221.123,332.524 222.5,329.5C 223.5,329.5 224.5,329.5 225.5,329.5C 225.351,328.448 225.517,327.448 226,326.5C 226.645,327.646 227.478,328.646 228.5,329.5C 228.291,330.086 227.957,330.586 227.5,331C 228.167,338.333 228.833,345.667 229.5,353C 228.09,353.368 227.09,354.201 226.5,355.5C 227.407,358.421 227.74,361.421 227.5,364.5C 228.675,364.281 229.675,364.614 230.5,365.5C 231.373,367.413 232.373,369.247 233.5,371C 232.587,372.414 232.587,373.914 233.5,375.5 Z"/></g>
<g><path style="opacity:1" fill="#6c1404" d="M 281.5,341.5 C 282.651,346.65 282.817,351.984 282,357.5C 281.617,358.056 281.117,358.389 280.5,358.5C 279.833,358.5 279.167,358.5 278.5,358.5C 279.636,356.954 280.302,355.121 280.5,353C 280.069,349.114 279.403,345.28 278.5,341.5C 276.046,341.679 273.879,341.013 272,339.5C 269.48,339.598 266.98,339.598 264.5,339.5C 261.153,341.294 257.986,343.961 255,347.5C 255.187,350.232 255.687,352.565 256.5,354.5C 256.158,355.338 255.492,355.672 254.5,355.5C 253.368,354.646 252.035,354.646 250.5,355.5C 248.586,354.815 246.586,354.315 244.5,354C 246.962,352.784 249.629,352.118 252.5,352C 250.579,351.64 248.912,350.806 247.5,349.5C 249.958,345.212 252.958,341.379 256.5,338C 263.039,335.476 269.539,333.643 276,332.5C 276.83,336.153 278.663,339.153 281.5,341.5 Z"/></g>
<g><path style="opacity:1" fill="#411c13" d="M 295.5,323.5 C 296.762,327.143 297.762,330.976 298.5,335C 296.859,343.082 296.193,351.249 296.5,359.5C 295.686,357.369 295.186,355.036 295,352.5C 293.272,355.33 291.105,357.663 288.5,359.5C 286.999,360.752 285.332,361.752 283.5,362.5C 282.167,362.167 280.833,361.833 279.5,361.5C 280.11,360.609 280.443,359.609 280.5,358.5C 281.117,358.389 281.617,358.056 282,357.5C 282.817,351.984 282.651,346.65 281.5,341.5C 282.441,339.95 283.107,338.284 283.5,336.5C 284.571,342.73 287.738,344.063 293,340.5C 293.886,334.961 294.719,329.294 295.5,323.5 Z"/></g>
<g><path style="opacity:1" fill="#801506" d="M 278.5,358.5 C 277.167,358.833 275.833,359.167 274.5,359.5C 273.784,354.433 273.451,349.766 273.5,345.5C 267.938,348.78 262.271,351.78 256.5,354.5C 255.687,352.565 255.187,350.232 255,347.5C 257.986,343.961 261.153,341.294 264.5,339.5C 266.98,339.598 269.48,339.598 272,339.5C 273.879,341.013 276.046,341.679 278.5,341.5C 279.403,345.28 280.069,349.114 280.5,353C 280.302,355.121 279.636,356.954 278.5,358.5 Z"/></g>
<g><path style="opacity:1" fill="#a62814" d="M 274.5,359.5 C 266.37,360.819 258.37,360.152 250.5,357.5C 251.833,356.833 253.167,356.167 254.5,355.5C 255.492,355.672 256.158,355.338 256.5,354.5C 262.271,351.78 267.938,348.78 273.5,345.5C 273.451,349.766 273.784,354.433 274.5,359.5 Z"/></g>
<g><path style="opacity:1" fill="#562a21" d="M 242.5,360.5 C 242.389,361.117 242.056,361.617 241.5,362C 243.421,362.36 245.088,363.194 246.5,364.5C 249,364.833 251.5,365.167 254,365.5C 258.092,364.954 262.092,364.954 266,365.5C 269.466,364.591 272.966,363.924 276.5,363.5C 274.458,365.138 273.124,366.805 272.5,368.5C 270.56,367.905 268.56,367.572 266.5,367.5C 258.926,369.939 251.259,369.939 243.5,367.5C 240.977,366.543 238.643,365.21 236.5,363.5C 237,362.5 237.5,361.5 238,360.5C 239.414,361.413 240.914,361.413 242.5,360.5 Z"/></g>
<g><path style="opacity:1" fill="#6a2c21" d="M 250.5,357.5 C 258.37,360.152 266.37,360.819 274.5,359.5C 275.833,359.167 277.167,358.833 278.5,358.5C 279.167,358.5 279.833,358.5 280.5,358.5C 280.443,359.609 280.11,360.609 279.5,361.5C 278.29,361.932 277.29,362.599 276.5,363.5C 272.966,363.924 269.466,364.591 266,365.5C 262.092,364.954 258.092,364.954 254,365.5C 251.5,365.167 249,364.833 246.5,364.5C 245.088,363.194 243.421,362.36 241.5,362C 242.056,361.617 242.389,361.117 242.5,360.5C 245.167,359.5 247.833,358.5 250.5,357.5 Z"/></g>
<g><path style="opacity:1" fill="#120604" d="M 288.5,359.5 C 289.786,364.661 290.786,369.994 291.5,375.5C 290.512,378.38 291.179,380.88 293.5,383C 292.134,385.382 292.467,387.548 294.5,389.5C 295.902,389.135 296.902,388.301 297.5,387C 298.742,383.348 298.742,379.681 297.5,376C 297.684,374.624 298.351,373.791 299.5,373.5C 300.482,376.763 301.149,380.097 301.5,383.5C 301.822,385.722 301.155,387.556 299.5,389C 295.689,390.07 292.356,391.903 289.5,394.5C 287.119,395.42 284.786,395.42 282.5,394.5C 281.499,391.827 279.999,389.493 278,387.5C 277.501,383.848 277.335,380.182 277.5,376.5C 276.32,373.089 276.32,370.089 277.5,367.5C 279.5,365.833 281.5,364.167 283.5,362.5C 285.332,361.752 286.999,360.752 288.5,359.5 Z"/></g>
<g><path style="opacity:1" fill="#301211" d="M 279.5,361.5 C 280.833,361.833 282.167,362.167 283.5,362.5C 281.5,364.167 279.5,365.833 277.5,367.5C 274.768,368.866 272.101,370.199 269.5,371.5C 268.29,371.932 267.29,372.599 266.5,373.5C 259.346,376.411 252.012,378.745 244.5,380.5C 245.091,379.849 245.757,379.182 246.5,378.5C 244.955,377.548 243.288,377.215 241.5,377.5C 241.657,378.873 241.49,380.207 241,381.5C 238.695,377.787 235.529,376.787 231.5,378.5C 229.914,380.173 229.247,382.173 229.5,384.5C 233.339,384.612 233.339,385.279 229.5,386.5C 228.201,388.758 227.201,391.092 226.5,393.5C 224.565,392.85 222.565,392.517 220.5,392.5C 219.325,392.719 218.325,392.386 217.5,391.5C 220.432,390.183 223.432,389.016 226.5,388C 225.167,387.667 223.833,387.333 222.5,387C 223.996,383.851 225.496,380.684 227,377.5C 228.789,375.771 230.956,375.104 233.5,375.5C 235.265,376.461 237.265,376.795 239.5,376.5C 239.247,372.868 238.247,369.534 236.5,366.5C 238.806,366.993 241.139,367.326 243.5,367.5C 251.259,369.939 258.926,369.939 266.5,367.5C 268.56,367.572 270.56,367.905 272.5,368.5C 273.124,366.805 274.458,365.138 276.5,363.5C 277.29,362.599 278.29,361.932 279.5,361.5 Z"/></g>
<g><path style="opacity:1" fill="#200e09" d="M 296.5,359.5 C 297.715,364.121 298.715,368.788 299.5,373.5C 298.351,373.791 297.684,374.624 297.5,376C 298.742,379.681 298.742,383.348 297.5,387C 296.902,388.301 295.902,389.135 294.5,389.5C 292.467,387.548 292.134,385.382 293.5,383C 291.179,380.88 290.512,378.38 291.5,375.5C 290.786,369.994 289.786,364.661 288.5,359.5C 291.105,357.663 293.272,355.33 295,352.5C 295.186,355.036 295.686,357.369 296.5,359.5 Z"/></g>
<g><path style="opacity:1" fill="#2d1f1d" d="M 277.5,367.5 C 276.32,370.089 276.32,373.089 277.5,376.5C 276.203,381.066 276.203,385.733 277.5,390.5C 271.666,389.992 270,386.992 272.5,381.5C 271.454,378.572 269.788,376.072 267.5,374C 268.833,373.333 270.167,372.667 271.5,372C 270.906,371.536 270.239,371.369 269.5,371.5C 272.101,370.199 274.768,368.866 277.5,367.5 Z"/></g>
<g><path style="opacity:1" fill="#534041" d="M 266.5,373.5 C 265.269,374.718 264.102,376.051 263,377.5C 259.953,376.61 257.786,377.776 256.5,381C 257.126,381.75 257.626,382.584 258,383.5C 259.243,382.664 260.41,382.997 261.5,384.5C 260.975,385.192 260.308,385.692 259.5,386C 260.308,386.308 260.975,386.808 261.5,387.5C 259.378,386.573 257.045,386.573 254.5,387.5C 254.127,390.932 255.46,393.266 258.5,394.5C 257.167,394.5 255.833,394.5 254.5,394.5C 253.833,394.5 253.167,394.5 252.5,394.5C 252.141,392.629 251.141,391.129 249.5,390C 245.746,390.086 242.079,389.92 238.5,389.5C 238.762,388.022 238.429,386.689 237.5,385.5C 236.391,386.59 235.391,386.59 234.5,385.5C 237.182,384.12 240.016,383.12 243,382.5C 244.03,382.164 244.53,381.497 244.5,380.5C 252.012,378.745 259.346,376.411 266.5,373.5 Z"/></g>
<g><path style="opacity:1" fill="#402f2f" d="M 269.5,371.5 C 270.239,371.369 270.906,371.536 271.5,372C 270.167,372.667 268.833,373.333 267.5,374C 269.788,376.072 271.454,378.572 272.5,381.5C 270,386.992 271.666,389.992 277.5,390.5C 277.414,391.496 277.748,392.329 278.5,393C 271.908,394.329 265.241,394.829 258.5,394.5C 255.46,393.266 254.127,390.932 254.5,387.5C 257.045,386.573 259.378,386.573 261.5,387.5C 260.975,386.808 260.308,386.308 259.5,386C 260.308,385.692 260.975,385.192 261.5,384.5C 260.41,382.997 259.243,382.664 258,383.5C 257.626,382.584 257.126,381.75 256.5,381C 257.786,377.776 259.953,376.61 263,377.5C 264.102,376.051 265.269,374.718 266.5,373.5C 267.29,372.599 268.29,371.932 269.5,371.5 Z"/></g>
<g><path style="opacity:1" fill="#4b2d2d" d="M 244.5,380.5 C 244.53,381.497 244.03,382.164 243,382.5C 240.016,383.12 237.182,384.12 234.5,385.5C 235.391,386.59 236.391,386.59 237.5,385.5C 238.429,386.689 238.762,388.022 238.5,389.5C 242.079,389.92 245.746,390.086 249.5,390C 251.141,391.129 252.141,392.629 252.5,394.5C 248.167,394.5 243.833,394.5 239.5,394.5C 235.366,393.515 231.032,393.182 226.5,393.5C 227.201,391.092 228.201,388.758 229.5,386.5C 233.339,385.279 233.339,384.612 229.5,384.5C 229.247,382.173 229.914,380.173 231.5,378.5C 235.529,376.787 238.695,377.787 241,381.5C 241.49,380.207 241.657,378.873 241.5,377.5C 243.288,377.215 244.955,377.548 246.5,378.5C 245.757,379.182 245.091,379.849 244.5,380.5 Z"/></g>
<g><path style="opacity:1" fill="#260e0d" d="M 277.5,376.5 C 277.335,380.182 277.501,383.848 278,387.5C 279.999,389.493 281.499,391.827 282.5,394.5C 284.786,395.42 287.119,395.42 289.5,394.5C 289.586,395.496 289.252,396.329 288.5,397C 287.234,397.309 286.067,397.809 285,398.5C 283.768,401.412 282.268,404.078 280.5,406.5C 277.673,406.584 275.006,407.25 272.5,408.5C 274.036,405.908 276.369,404.908 279.5,405.5C 279.5,402.167 279.5,398.833 279.5,395.5C 278.5,395.5 277.5,395.5 276.5,395.5C 275.504,395.414 274.671,395.748 274,396.5C 267.401,395.85 260.901,395.184 254.5,394.5C 255.833,394.5 257.167,394.5 258.5,394.5C 265.241,394.829 271.908,394.329 278.5,393C 277.748,392.329 277.414,391.496 277.5,390.5C 276.203,385.733 276.203,381.066 277.5,376.5 Z"/></g>
<g><path style="opacity:1" fill="#36211c" d="M 301.5,383.5 C 302.62,387.017 302.62,390.684 301.5,394.5C 297.13,395.958 292.797,397.625 288.5,399.5C 287.667,400.5 286.833,401.5 286,402.5C 284.117,409.619 282.283,416.619 280.5,423.5C 278.897,421.559 277.563,419.393 276.5,417C 278.27,413.634 279.603,410.134 280.5,406.5C 282.268,404.078 283.768,401.412 285,398.5C 286.067,397.809 287.234,397.309 288.5,397C 289.252,396.329 289.586,395.496 289.5,394.5C 292.356,391.903 295.689,390.07 299.5,389C 301.155,387.556 301.822,385.722 301.5,383.5 Z"/></g>
<g><path style="opacity:1" fill="#5f0e0a" d="M 239.5,394.5 C 243.833,394.5 248.167,394.5 252.5,394.5C 253.167,394.5 253.833,394.5 254.5,394.5C 260.901,395.184 267.401,395.85 274,396.5C 274.671,395.748 275.504,395.414 276.5,395.5C 276.063,397.074 275.063,398.241 273.5,399C 274.448,399.483 275.448,399.649 276.5,399.5C 276.5,401.167 276.5,402.833 276.5,404.5C 274.099,405.049 271.765,405.882 269.5,407C 268.619,407.708 267.953,408.542 267.5,409.5C 266.833,409.833 266.167,410.167 265.5,410.5C 263.958,409.699 262.292,409.366 260.5,409.5C 261.99,407.72 263.99,407.054 266.5,407.5C 267.274,404.619 268.607,401.952 270.5,399.5C 269.088,398.194 267.421,397.36 265.5,397C 258.783,396.796 252.117,396.296 245.5,395.5C 242.68,396.65 242.346,397.816 244.5,399C 242.808,400.401 242.141,402.234 242.5,404.5C 242.167,404.5 241.833,404.5 241.5,404.5C 240.833,404.5 240.5,404.167 240.5,403.5C 241.043,403.44 241.376,403.107 241.5,402.5C 240.675,401.614 239.675,401.281 238.5,401.5C 238.167,399.5 237.833,397.5 237.5,395.5C 238.167,395.167 238.833,394.833 239.5,394.5 Z"/></g>
<g><path style="opacity:1" fill="#513932" d="M 300.5,301.5 C 300.002,304.829 299.002,307.995 297.5,311C 298.833,312.84 298.666,313.34 297,312.5C 297.378,320.403 298.545,328.237 300.5,336C 299.172,342.617 298.172,349.284 297.5,356C 299.598,366.559 301.932,377.059 304.5,387.5C 302.929,398.263 300.929,408.93 298.5,419.5C 297.833,419.5 297.5,419.833 297.5,420.5C 296.833,420.5 296.5,420.833 296.5,421.5C 296.5,421.833 296.5,422.167 296.5,422.5C 295.833,422.833 295.167,423.167 294.5,423.5C 296.137,419.422 297.47,415.256 298.5,411C 298,410.5 297.5,410 297,409.5C 294.012,411.399 291.179,413.399 288.5,415.5C 287.5,416.167 286.5,416.833 285.5,417.5C 285.989,414.533 287.155,411.867 289,409.5C 289.333,410.5 289.667,411.5 290,412.5C 293.231,409.118 294.731,405.118 294.5,400.5C 291.358,400.799 289.191,402.466 288,405.5C 285.9,410.354 284.4,415.354 283.5,420.5C 282.85,422.435 282.517,424.435 282.5,426.5C 284.833,426.5 287.167,426.5 289.5,426.5C 287.393,427.468 285.059,427.802 282.5,427.5C 281.833,427.5 281.5,427.833 281.5,428.5C 280.24,430.367 278.573,431.7 276.5,432.5C 278.644,429.878 279.977,426.878 280.5,423.5C 282.283,416.619 284.117,409.619 286,402.5C 286.833,401.5 287.667,400.5 288.5,399.5C 292.797,397.625 297.13,395.958 301.5,394.5C 302.62,390.684 302.62,387.017 301.5,383.5C 301.149,380.097 300.482,376.763 299.5,373.5C 298.715,368.788 297.715,364.121 296.5,359.5C 296.193,351.249 296.859,343.082 298.5,335C 297.762,330.976 296.762,327.143 295.5,323.5C 294.701,320.57 294.368,317.57 294.5,314.5C 294.5,313.833 294.5,313.167 294.5,312.5C 296.395,308.356 298.062,304.022 299.5,299.5C 300.298,299.957 300.631,300.624 300.5,301.5 Z"/></g>
<g><path style="opacity:1" fill="#410f09" d="M 237.5,395.5 C 237.833,397.5 238.167,399.5 238.5,401.5C 239.675,401.281 240.675,401.614 241.5,402.5C 241.376,403.107 241.043,403.44 240.5,403.5C 239.508,403.328 238.842,403.662 238.5,404.5C 235.402,404.587 235.068,404.087 237.5,403C 236.5,402.667 235.5,402.333 234.5,402C 233.072,399.815 231.405,397.815 229.5,396C 232.146,395.503 234.813,395.336 237.5,395.5 Z"/></g>
<g><path style="opacity:1" fill="#380c0c" d="M 276.5,395.5 C 277.5,395.5 278.5,395.5 279.5,395.5C 279.5,398.833 279.5,402.167 279.5,405.5C 276.369,404.908 274.036,405.908 272.5,408.5C 270.958,409.301 269.292,409.634 267.5,409.5C 267.953,408.542 268.619,407.708 269.5,407C 271.765,405.882 274.099,405.049 276.5,404.5C 276.5,402.833 276.5,401.167 276.5,399.5C 275.448,399.649 274.448,399.483 273.5,399C 275.063,398.241 276.063,397.074 276.5,395.5 Z"/></g>
<g><path style="opacity:1" fill="#821812" d="M 260.5,409.5 C 260.719,410.675 260.386,411.675 259.5,412.5C 253.823,409.814 248.156,407.148 242.5,404.5C 242.141,402.234 242.808,400.401 244.5,399C 242.346,397.816 242.68,396.65 245.5,395.5C 252.117,396.296 258.783,396.796 265.5,397C 267.421,397.36 269.088,398.194 270.5,399.5C 268.607,401.952 267.274,404.619 266.5,407.5C 263.99,407.054 261.99,407.72 260.5,409.5 Z"/></g>
<g><path style="opacity:1" fill="#9d160c" d="M 247.5,399.5 C 252.247,398.963 256.58,399.963 260.5,402.5C 261.167,401.833 261.833,401.167 262.5,400.5C 263.354,401.522 264.354,402.355 265.5,403C 263.152,403.346 261.319,404.513 260,406.5C 255.888,406.598 251.722,406.264 247.5,405.5C 246.725,403.388 246.725,401.388 247.5,399.5 Z"/></g>
<g><path style="opacity:1" fill="#22120f" d="M 216.5,339.5 C 217.23,343.778 217.897,348.111 218.5,352.5C 215.705,365.531 212.705,378.198 209.5,390.5C 209.936,393.179 210.436,395.845 211,398.5C 213.036,399.102 214.87,400.102 216.5,401.5C 217.252,404.263 218.252,406.93 219.5,409.5C 221.718,410.924 223.218,412.924 224,415.5C 224.853,413.875 225.853,413.542 227,414.5C 227.531,410.438 229.364,407.104 232.5,404.5C 230.135,400.661 226.801,398.328 222.5,397.5C 222.635,395.446 221.968,393.779 220.5,392.5C 222.565,392.517 224.565,392.85 226.5,393.5C 231.032,393.182 235.366,393.515 239.5,394.5C 238.833,394.833 238.167,395.167 237.5,395.5C 234.813,395.336 232.146,395.503 229.5,396C 231.405,397.815 233.072,399.815 234.5,402C 235.5,402.333 236.5,402.667 237.5,403C 235.068,404.087 235.402,404.587 238.5,404.5C 240.361,408.245 241.694,412.245 242.5,416.5C 239.567,420.407 236.9,424.574 234.5,429C 234.833,429.333 235.167,429.667 235.5,430C 229.543,432.653 224.543,431.487 220.5,426.5C 220.489,424.453 220.156,422.453 219.5,420.5C 219.59,418.575 220.59,417.408 222.5,417C 218.242,415.578 215.576,412.745 214.5,408.5C 212.058,408.881 211.391,408.214 212.5,406.5C 210.146,403.628 208.646,400.295 208,396.5C 207.926,388.146 208.426,379.813 209.5,371.5C 210.301,363.912 210.801,356.245 211,348.5C 211.333,348.833 211.667,349.167 212,349.5C 213.275,345.958 214.775,342.625 216.5,339.5 Z"/></g>
<g><path style="opacity:1" fill="#7e6963" d="M 285.5,417.5 C 284.833,418.5 284.167,419.5 283.5,420.5C 284.4,415.354 285.9,410.354 288,405.5C 289.191,402.466 291.358,400.799 294.5,400.5C 294.731,405.118 293.231,409.118 290,412.5C 289.667,411.5 289.333,410.5 289,409.5C 287.155,411.867 285.989,414.533 285.5,417.5 Z"/></g>
<g><path style="opacity:1" fill="#613433" d="M 241.5,404.5 C 241.833,404.5 242.167,404.5 242.5,404.5C 248.156,407.148 253.823,409.814 259.5,412.5C 260.386,411.675 260.719,410.675 260.5,409.5C 262.292,409.366 263.958,409.699 265.5,410.5C 264.685,411.837 263.518,412.837 262,413.5C 261.59,414.901 261.09,416.234 260.5,417.5C 260.167,417.5 259.833,417.5 259.5,417.5C 259.426,415.589 258.426,414.422 256.5,414C 254.645,413.578 252.811,413.078 251,412.5C 250.235,412.57 249.735,412.903 249.5,413.5C 247.91,413.372 246.577,412.705 245.5,411.5C 244.312,409.024 242.979,406.69 241.5,404.5 Z"/></g>
<g><path style="opacity:1" fill="#361b15" d="M 209.5,371.5 C 208.426,379.813 207.926,388.146 208,396.5C 208.646,400.295 210.146,403.628 212.5,406.5C 211.391,408.214 212.058,408.881 214.5,408.5C 215.576,412.745 218.242,415.578 222.5,417C 220.59,417.408 219.59,418.575 219.5,420.5C 220.156,422.453 220.489,424.453 220.5,426.5C 219.234,425.91 217.901,425.41 216.5,425C 203.364,408.491 201.031,390.658 209.5,371.5 Z"/></g>
<g><path style="opacity:1" fill="#614a45" d="M 259.5,417.5 C 258.264,418.579 256.931,419.579 255.5,420.5C 253.947,418.615 251.947,417.615 249.5,417.5C 249.162,420.325 250.162,422.492 252.5,424C 251.167,424.333 249.833,424.667 248.5,425C 250.708,425.191 252.708,425.691 254.5,426.5C 249.969,426.15 245.636,426.817 241.5,428.5C 241.062,428.565 240.728,428.399 240.5,428C 242.081,427.293 243.581,426.46 245,425.5C 248.148,422.229 247.982,419.396 244.5,417C 245.263,416.056 246.263,415.556 247.5,415.5C 252.762,417.139 253.429,416.472 249.5,413.5C 249.735,412.903 250.235,412.57 251,412.5C 252.811,413.078 254.645,413.578 256.5,414C 258.426,414.422 259.426,415.589 259.5,417.5 Z"/></g>
<g><path style="opacity:1" fill="#67352e" d="M 294.5,423.5 C 294.167,424.5 293.5,425.167 292.5,425.5C 291.713,421.93 290.38,418.597 288.5,415.5C 291.179,413.399 294.012,411.399 297,409.5C 297.5,410 298,410.5 298.5,411C 297.47,415.256 296.137,419.422 294.5,423.5 Z"/></g>
<g><path style="opacity:0.004" fill="#000000" d="M 298.5,419.5 C 299.833,420.167 299.833,420.167 298.5,419.5 Z"/></g>
<g><path style="opacity:1" fill="#561915" d="M 288.5,415.5 C 290.38,418.597 291.713,421.93 292.5,425.5C 291.391,425.557 290.391,425.89 289.5,426.5C 287.167,426.5 284.833,426.5 282.5,426.5C 282.517,424.435 282.85,422.435 283.5,420.5C 284.167,419.5 284.833,418.5 285.5,417.5C 286.5,416.833 287.5,416.167 288.5,415.5 Z"/></g>
<g><path style="opacity:0.096" fill="#040403" d="M 211.5,420.5 C 212.401,421.29 213.068,422.29 213.5,423.5C 212.167,423.833 212.167,424.167 213.5,424.5C 221.897,433.336 231.23,434.669 241.5,428.5C 245.636,426.817 249.969,426.15 254.5,426.5C 255.833,427.167 256.833,428.167 257.5,429.5C 258.716,431.451 260.382,432.951 262.5,434C 266.167,434.667 269.833,434.667 273.5,434C 274.737,433.768 275.737,433.268 276.5,432.5C 278.573,431.7 280.24,430.367 281.5,428.5C 282.167,428.5 282.5,428.167 282.5,427.5C 285.059,427.802 287.393,427.468 289.5,426.5C 290.391,425.89 291.391,425.557 292.5,425.5C 293.5,425.167 294.167,424.5 294.5,423.5C 295.167,423.167 295.833,422.833 296.5,422.5C 297.833,422.167 297.833,421.833 296.5,421.5C 296.5,420.833 296.833,420.5 297.5,420.5C 297.833,420.5 298.167,420.5 298.5,420.5C 296.503,428.749 291.336,432.082 283,430.5C 281.188,432.312 279.355,434.145 277.5,436C 271.833,436.667 266.167,436.667 260.5,436C 258.527,434.027 256.527,432.027 254.5,430C 253.333,429.833 252.167,429.667 251,429.5C 244.923,430.953 239.09,433.119 233.5,436C 222.255,436.717 214.589,431.884 210.5,421.5C 211.167,421.5 211.5,421.167 211.5,420.5 Z"/></g>
<g><path style="opacity:1" fill="#918177" d="M 255.5,420.5 C 255.893,423.416 256.893,426.083 258.5,428.5C 258.376,429.107 258.043,429.44 257.5,429.5C 256.833,428.167 255.833,427.167 254.5,426.5C 252.708,425.691 250.708,425.191 248.5,425C 249.833,424.667 251.167,424.333 252.5,424C 250.162,422.492 249.162,420.325 249.5,417.5C 251.947,417.615 253.947,418.615 255.5,420.5 Z"/></g>
<g><path style="opacity:1" fill="#392d29" d="M 259.5,417.5 C 259.833,417.5 260.167,417.5 260.5,417.5C 261.638,420.304 261.805,423.304 261,426.5C 260.111,425.112 259.611,425.278 259.5,427C 260.426,429.262 261.759,431.262 263.5,433C 267.819,433.076 272.152,432.909 276.5,432.5C 275.737,433.268 274.737,433.768 273.5,434C 269.833,434.667 266.167,434.667 262.5,434C 260.382,432.951 258.716,431.451 257.5,429.5C 258.043,429.44 258.376,429.107 258.5,428.5C 256.893,426.083 255.893,423.416 255.5,420.5C 256.931,419.579 258.264,418.579 259.5,417.5 Z"/></g>
<g><path style="opacity:1" fill="#160a08" d="M 280.5,406.5 C 279.603,410.134 278.27,413.634 276.5,417C 277.563,419.393 278.897,421.559 280.5,423.5C 279.977,426.878 278.644,429.878 276.5,432.5C 272.152,432.909 267.819,433.076 263.5,433C 261.759,431.262 260.426,429.262 259.5,427C 259.611,425.278 260.111,425.112 261,426.5C 261.805,423.304 261.638,420.304 260.5,417.5C 261.09,416.234 261.59,414.901 262,413.5C 263.518,412.837 264.685,411.837 265.5,410.5C 266.167,410.167 266.833,409.833 267.5,409.5C 269.292,409.634 270.958,409.301 272.5,408.5C 275.006,407.25 277.673,406.584 280.5,406.5 Z"/></g>
</svg>
